<?xml version="1.0" encoding="UTF-8"?>
<svg version="1.1" xmlns="http://www.w3.org/2000/svg" width="677" height="369">
<path d="M0 0 C8.80646465 -0.06984104 17.61283239 -0.12298301 26.41951466 -0.15543652 C30.50983857 -0.17102101 34.5999715 -0.19212543 38.69018555 -0.22631836 C42.64540646 -0.25917182 46.60044491 -0.27690712 50.55579185 -0.28463173 C52.05670731 -0.29012903 53.55761399 -0.30086243 55.0584507 -0.31719017 C66.65729259 -0.43823319 76.45732432 1.08008468 87 6 C87 6.66 87 7.32 87 8 C88.32 8.66 89.64 9.32 91 10 C91 10.66 91 11.32 91 12 C91.598125 12.20625 92.19625 12.4125 92.8125 12.625 C96.90161429 15.19530041 98.00959287 19.58151062 99.1875 24.0625 C101.32124771 34.82165159 101.02869712 46.77383173 94.9375 56.1875 C93 58 93 58 91 58 C90.9071875 58.86625 90.9071875 58.86625 90.8125 59.75 C89.65295742 62.96104098 87.76036488 64.03707386 85 66 C84.05125 66.680625 83.1025 67.36125 82.125 68.0625 C74.81864799 72.59243824 68.42111694 74.06405184 59.94921875 74.31640625 C59.29041214 74.33718735 58.63160553 74.35796844 57.95283508 74.37937927 C55.86448815 74.44435489 53.77602388 74.50351575 51.6875 74.5625 C50.2649622 74.60573479 48.84243594 74.6493506 47.41992188 74.69335938 C43.94673703 74.79998216 40.47342274 74.90139348 37 75 C36.19997833 78.08122632 35.41017397 81.16495715 34.625 84.25 C34.39167969 85.16499268 34.15835938 86.07998535 33.91796875 87.02270508 C32.69713048 91.90045405 31.66199795 96.6965547 31 101.6875 C29.56845562 111.15977499 24.55199034 117.5133691 17.0625 123.25 C11.55520578 126.39702527 5.79672702 126.1350429 -0.375 126.0625 C-1.11105469 126.05798828 -1.84710938 126.05347656 -2.60546875 126.04882812 C-4.40368158 126.03715142 -6.20185197 126.01922011 -8 126 C-7.71559397 113.51198959 -4.44516795 101.28689647 -0.92578125 89.359375 C0.1033741 85.62488721 0.76143784 81.88076509 1.375 78.0625 C2.5901197 70.85168228 4.17712461 63.80460466 6.03515625 56.734375 C6.6486945 54.35970874 7.22360287 51.97447061 7.74609375 49.578125 C9.69570312 40.72227229 12.57996023 35.36963461 19.9609375 30.04296875 C25.84617766 27.03270223 31.49867278 26.73154712 37.9375 26.875 C38.71673828 26.88402344 39.49597656 26.89304687 40.29882812 26.90234375 C42.19935447 26.92566309 44.09972008 26.96152414 46 27 C46.23952163 32.63624342 45.38279585 37.48573392 44 42.9375 C43.80921875 43.71673828 43.6184375 44.49597656 43.421875 45.29882812 C42.9550862 47.20099248 42.47854864 49.10076009 42 51 C48.25530703 50.62742685 54.5002876 50.211153 60.6875 49.1875 C61.47511719 49.05730469 62.26273437 48.92710937 63.07421875 48.79296875 C65.16246985 48.15169684 65.16246985 48.15169684 66.19140625 46.09375 C66.45824219 45.4028125 66.72507812 44.711875 67 44 C67.4125 43.113125 67.825 42.22625 68.25 41.3125 C69.22701052 36.9973702 69.11491378 32.96546334 67 29 C61.80272683 25.61875946 57.30712531 25.57324128 51.32421875 25.59375 C50.39962357 25.58291382 49.47502838 25.57207764 48.52241516 25.56091309 C45.57737208 25.52676892 42.63271457 25.51108945 39.6875 25.5 C35.8160404 25.48534383 31.94542887 25.45147987 28.07421875 25.40625 C27.19892014 25.40927124 26.32362152 25.41229248 25.42179871 25.41540527 C18.28538068 25.32959064 11.45540194 24.11754931 5.625 19.75 C0.65655485 14.54496222 -0.5291267 8.94538113 -1 2 C-0.67 1.34 -0.34 0.68 0 0 Z " fill="#5C6567" transform="translate(289,86)"/>
<path d="M0 0 C0.77923828 0.00902344 1.55847656 0.01804687 2.36132812 0.02734375 C4.26185447 0.05066309 6.16222008 0.08652414 8.0625 0.125 C8.13392857 7.77678571 8.13392857 7.77678571 7.0625 11.125 C6.0725 10.795 5.0825 10.465 4.0625 10.125 C1.8845302 11.86564472 1.8845302 11.86564472 1.9375 13.91015625 C1.97875 14.66167969 2.02 15.41320312 2.0625 16.1875 C2.16337843 21.13054301 1.75759138 25.91088411 1.1875 30.8125 C1.10886719 31.5247876 1.03023438 32.2370752 0.94921875 32.97094727 C0.53080041 36.43697996 -0.04235762 39.67910979 -1.0703125 43.01953125 C-2.27805719 46.00329919 -2.27805719 46.00329919 -0.9375 48.125 C-1.2512207 49.99755859 -1.2512207 49.99755859 -1.86328125 52.2734375 C-2.08177734 53.10834717 -2.30027344 53.94325684 -2.52539062 54.8034668 C-2.88407227 56.13825073 -2.88407227 56.13825073 -3.25 57.5 C-4.76189366 63.25922906 -6.16276539 68.8984368 -6.9375 74.8125 C-8.36904438 84.28477499 -13.38550966 90.6383691 -20.875 96.375 C-26.38229422 99.52202527 -32.14077298 99.2600429 -38.3125 99.1875 C-39.04855469 99.18298828 -39.78460938 99.17847656 -40.54296875 99.17382812 C-42.34118158 99.16215142 -44.13935197 99.14422011 -45.9375 99.125 C-45.65309397 86.63698959 -42.38266795 74.41189647 -38.86328125 62.484375 C-37.8341259 58.74988721 -37.17606216 55.00576509 -36.5625 51.1875 C-35.3473803 43.97668228 -33.76037539 36.92960466 -31.90234375 29.859375 C-31.2888055 27.48470874 -30.71389713 25.09947061 -30.19140625 22.703125 C-28.24179688 13.84727229 -25.35753977 8.49463461 -17.9765625 3.16796875 C-12.09132234 0.15770223 -6.43882722 -0.14345288 0 0 Z " fill="#42C81A" transform="translate(326.9375,112.875)"/>
<path d="M0 0 C1.20234787 -0.0033284 2.40469574 -0.0066568 3.64347839 -0.01008606 C6.17238992 -0.01512924 8.70130806 -0.0174952 11.23022461 -0.01733398 C15.1099727 -0.0195338 18.98944227 -0.03775356 22.86914062 -0.05664062 C25.32942611 -0.05957236 27.78971295 -0.06155863 30.25 -0.0625 C31.41247757 -0.06968552 32.57495514 -0.07687103 33.7726593 -0.08427429 C35.38529915 -0.07965935 35.38529915 -0.07965935 37.03051758 -0.07495117 C38.44993401 -0.0770887 38.44993401 -0.0770887 39.89802551 -0.07926941 C42.29296875 0.16796875 42.29296875 0.16796875 45.29296875 2.16796875 C45.62296875 1.83796875 45.95296875 1.50796875 46.29296875 1.16796875 C51.65692635 0.70153765 51.65692635 0.70153765 54.16796875 2.54296875 C55.29296875 4.16796875 55.29296875 4.16796875 55.29296875 6.16796875 C55.87046875 6.41546875 56.44796875 6.66296875 57.04296875 6.91796875 C59.62236854 8.35096863 61.35418467 9.95221551 63.29296875 12.16796875 C63.29296875 12.82796875 63.29296875 13.48796875 63.29296875 14.16796875 C63.87046875 14.41546875 64.44796875 14.66296875 65.04296875 14.91796875 C67.75520424 16.42476625 69.41048799 17.68040488 71.29296875 20.16796875 C71.36296225 22.50025204 71.36898581 24.83587402 71.29296875 27.16796875 C61.00821669 27.19129126 50.72347108 27.2089842 40.43869781 27.21978092 C35.66143347 27.22496665 30.88418742 27.23198454 26.10693359 27.2434082 C21.48386967 27.25439211 16.86082317 27.26027791 12.23774719 27.26284599 C10.48700181 27.26467264 8.73625723 27.26823849 6.98551941 27.27369881 C-3.95814178 27.30642696 -14.79202447 27.00073434 -25.70703125 26.16796875 C-24.83203125 17.29296875 -24.83203125 17.29296875 -23.70703125 16.16796875 C-21.2130406 16.0429926 -18.74534796 15.98193995 -16.24975586 15.96264648 C-15.46932419 15.95274689 -14.68889252 15.94284729 -13.8848114 15.93264771 C-11.29303062 15.900941 -8.70123148 15.87623925 -6.109375 15.8515625 C-4.31717947 15.83100088 -2.52498888 15.81000462 -0.73280334 15.78858948 C3.99362195 15.73328699 8.7200916 15.68391392 13.44659424 15.63574219 C18.2658688 15.5855867 23.08507863 15.52986964 27.90429688 15.47460938 C37.36713226 15.36692786 46.83002374 15.26550524 56.29296875 15.16796875 C54.97296875 13.51796875 53.65296875 11.86796875 52.29296875 10.16796875 C51.96296875 11.15796875 51.63296875 12.14796875 51.29296875 13.16796875 C42.0875347 13.19112344 32.88211066 13.20889983 23.67665386 13.21978092 C19.40234538 13.22500289 15.1280568 13.23208813 10.85375977 13.2434082 C6.73001217 13.2542614 2.60628374 13.26025077 -1.51747704 13.26284599 C-3.09196461 13.26469584 -4.66645112 13.26830805 -6.24093056 13.27369881 C-8.44360254 13.28094149 -10.64619501 13.28195832 -12.84887695 13.28149414 C-14.73084526 13.28482506 -14.73084526 13.28482506 -16.65083313 13.28822327 C-19.70703125 13.16796875 -19.70703125 13.16796875 -22.70703125 12.16796875 C-22.04703125 8.53796875 -21.38703125 4.90796875 -20.70703125 1.16796875 C-13.78715262 0.11135793 -6.99269053 0.0067528 0 0 Z " fill="#6E7679" transform="translate(347.70703125,163.83203125)"/>
<path d="M0 0 C13 0 13 0 16.01953125 1.8984375 C16.61121094 2.71570313 17.20289063 3.53296875 17.8125 4.375 C18.43769531 5.18710938 19.06289063 5.99921875 19.70703125 6.8359375 C21 9 21 9 21 11 C21.66 11 22.32 11 23 11 C23.103125 11.639375 23.20625 12.27875 23.3125 12.9375 C23.539375 13.618125 23.76625 14.29875 24 15 C24.99 15.33 25.98 15.66 27 16 C29.31 18.97 31.62 21.94 34 25 C34.33 16.75 34.66 8.5 35 0 C39.29 0 43.58 0 48 0 C48 16.5 48 33 48 50 C44.37 50 40.74 50 37 50 C36.01 49.01 35.02 48.02 34 47 C34 46.34 34 45.68 34 45 C33.01 44.67 32.02 44.34 31 44 C30.1071035 42.66065525 29.22155012 41.31590544 28.37109375 39.94921875 C25.936935 36.48869108 22.98764432 33.47060313 20.12109375 30.3671875 C18 28 18 28 15 24 C14.67 32.58 14.34 41.16 14 50 C9.38 50 4.76 50 0 50 C0 33.5 0 17 0 0 Z " fill="#525558" transform="translate(312,233)"/>
<path d="M0 0 C8.1675 -0.185625 8.1675 -0.185625 16.5 -0.375 C18.20220703 -0.42962402 19.90441406 -0.48424805 21.65820312 -0.54052734 C35.05006772 -0.79045795 35.05006772 -0.79045795 40.66992188 4.43823242 C44.97641826 9.4948876 45.48670975 13.91557401 45.28515625 20.3828125 C44.61613934 26.52310468 41.4121409 29.94560025 37 34 C37.93193584 36.07893381 38.71550555 37.72843711 40.375 39.3125 C43.05872523 42.09944543 46 46.06570625 46 50 C43.75165504 50.13526139 41.50097486 50.23210804 39.25 50.3125 C37.99703125 50.37050781 36.7440625 50.42851562 35.453125 50.48828125 C32 50 32 50 29.68359375 47.74609375 C28.27421633 45.44727165 27.01329344 43.16078837 25.8125 40.75 C24.26685303 38.16420066 23.58503719 37.18516329 20.6796875 36.265625 C17.91123121 35.92603284 17.91123121 35.92603284 14 36 C14 40.62 14 45.24 14 50 C9.38 50 4.76 50 0 50 C0 33.5 0 17 0 0 Z M14 10 C14 14.62 14 19.24 14 24 C17.21507718 25.07169239 19.15125136 25.02006037 22.5 24.75 C23.4590625 24.68296875 24.418125 24.6159375 25.40625 24.546875 C28.29637434 23.93751144 29.23882954 23.32180029 31 21 C32.08805146 18.6433774 32.08805146 18.6433774 32 16 C30.22336478 13.30441552 28.90715555 11.45357777 26 10 C23.95944995 9.92934383 21.91665743 9.91578024 19.875 9.9375 C17.93625 9.958125 15.9975 9.97875 14 10 Z " fill="#4A4F51" transform="translate(239,233)"/>
<path d="M0 0 C3.0625 0.125 3.0625 0.125 5.0625 1.125 C5.0625 1.785 5.0625 2.445 5.0625 3.125 C6.3825 3.785 7.7025 4.445 9.0625 5.125 C9.0625 5.785 9.0625 6.445 9.0625 7.125 C9.660625 7.33125 10.25875 7.5375 10.875 7.75 C14.96411429 10.32030041 16.07209287 14.70651062 17.25 19.1875 C19.38374771 29.94665159 19.09119712 41.89883173 13 51.3125 C11.0625 53.125 11.0625 53.125 9.0625 53.125 C8.9696875 53.99125 8.9696875 53.99125 8.875 54.875 C7.71545742 58.08604098 5.82286488 59.16207386 3.0625 61.125 C2.11375 61.805625 1.165 62.48625 0.1875 63.1875 C-7.33531927 67.85164795 -13.69477713 69.25744113 -22.42578125 69.22265625 C-23.12897995 69.2212413 -23.83217865 69.21982635 -24.5566864 69.21836853 C-26.78783544 69.21280109 -29.01888164 69.20025475 -31.25 69.1875 C-32.76887875 69.18248079 -34.28775909 69.17791862 -35.80664062 69.17382812 C-39.51699793 69.16369607 -43.22713476 69.14411465 -46.9375 69.125 C-45.2875 61.865 -43.6375 54.605 -41.9375 47.125 C-36.9875 47.125 -32.0375 47.125 -26.9375 47.125 C-26.9375 47.455 -26.9375 47.785 -26.9375 48.125 C-29.5775 48.455 -32.2175 48.785 -34.9375 49.125 C-35.5975 51.765 -36.2575 54.405 -36.9375 57.125 C-33.30864676 57.27649298 -33.30864676 57.27649298 -29.9375 56.125 C-28.56248718 56.10503093 -27.18655518 56.13244204 -25.8125 56.1875 C-17.2813537 56.2284495 -11.13850767 54.18025749 -4.9375 48.125 C-0.29748971 42.04934296 1.25677097 37.00987702 1.3125 29.375 C1.333125 28.6840625 1.35375 27.993125 1.375 27.28125 C1.4132947 22.18805509 0.52506805 18.61285767 -1.9375 14.125 C-2.9275 13.795 -3.9175 13.465 -4.9375 13.125 C-5.5975 12.465 -6.2575 11.805 -6.9375 11.125 C-8.25497324 10.42751417 -9.58664193 9.75540043 -10.9375 9.125 C-10.2775 7.805 -9.6175 6.485 -8.9375 5.125 C-6.9575 5.785 -4.9775 6.445 -2.9375 7.125 C-3.123125 6.155625 -3.30875 5.18625 -3.5 4.1875 C-3.644375 3.176875 -3.78875 2.16625 -3.9375 1.125 C-2.9375 0.125 -2.9375 0.125 0 0 Z " fill="#50585B" transform="translate(370.9375,90.875)"/>
<path d="M0 0 C5.465625 -0.103125 10.93125 -0.20625 16.5625 -0.3125 C18.27381104 -0.35802002 19.98512207 -0.40354004 21.74829102 -0.45043945 C23.12514291 -0.46506075 24.50201664 -0.47779753 25.87890625 -0.48828125 C26.92637024 -0.526651 26.92637024 -0.526651 27.99499512 -0.5657959 C33.6713765 -0.57077082 36.9329806 1.31023128 41 5 C44.46175515 9.15410618 45 13.72756487 45 19 C44.40033936 24.23766093 42.87160882 28.33216007 39 32 C33.22498499 35.805521 28.3061666 36.53820901 21.5 36.25 C20.67757812 36.23195313 19.85515625 36.21390625 19.0078125 36.1953125 C17.00469196 36.1487283 15.00218179 36.07700699 13 36 C13 40.62 13 45.24 13 50 C8.71 50 4.42 50 0 50 C0 33.5 0 17 0 0 Z M13 10 C13 14.62 13 19.24 13 24 C18.89926614 25.96642205 24.22984062 25.07725738 30 23 C31.44430855 20.11138291 31.37688506 18.20352299 31 15 C29.4481268 11.85932903 29.4481268 11.85932903 26 10 C21.57776229 9.5770499 17.46134916 9.77467934 13 10 Z " fill="#45494B" transform="translate(189,233)"/>
<path d="M0 0 C0.99 0 1.98 0 3 0 C2.67 3.3 2.34 6.6 2 10 C1.01 9.67 0.02 9.34 -1 9 C-3.1779698 10.74064472 -3.1779698 10.74064472 -3.125 12.78515625 C-3.08375 13.53667969 -3.0425 14.28820312 -3 15.0625 C-2.89912157 20.00554301 -3.30490862 24.78588411 -3.875 29.6875 C-3.95363281 30.3997876 -4.03226562 31.1120752 -4.11328125 31.84594727 C-4.53169959 35.31197996 -5.10485762 38.55410979 -6.1328125 41.89453125 C-7.34055719 44.87829919 -7.34055719 44.87829919 -6 47 C-6.3137207 48.87255859 -6.3137207 48.87255859 -6.92578125 51.1484375 C-7.14459961 51.98391113 -7.36341797 52.81938477 -7.58886719 53.68017578 C-7.82766602 54.56946777 -8.06646484 55.45875977 -8.3125 56.375 C-10.08773301 63.18249504 -11.65269606 69.9080342 -12.640625 76.8828125 C-13 79 -13 79 -14 81 C-14.99 81 -15.98 81 -17 81 C-17.33 81.99 -17.66 82.98 -18 84 C-18.66 84 -19.32 84 -20 84 C-20.0928125 85.175625 -20.0928125 85.175625 -20.1875 86.375 C-20.455625 87.24125 -20.72375 88.1075 -21 89 C-23.5625 90.3125 -23.5625 90.3125 -26 91 C-26 91.66 -26 92.32 -26 93 C-27.58086048 93.36504603 -29.16483907 93.71660506 -30.75 94.0625 C-31.63171875 94.25972656 -32.5134375 94.45695312 -33.421875 94.66015625 C-36.02266321 95.00298742 -37.51848845 94.70340244 -40 94 C-39.09765625 93.08863281 -38.1953125 92.17726563 -37.265625 91.23828125 C-33.17975882 86.47183748 -31.60124009 81.10036084 -29.75 75.1875 C-29.08312325 73.11687316 -28.41148056 71.04777332 -27.734375 68.98046875 C-27.44788086 68.07192139 -27.16138672 67.16337402 -26.86621094 66.22729492 C-26 64 -26 64 -24 62 C-23.84688658 59.51160664 -23.84688658 59.51160664 -24.0234375 56.63671875 C-24.13102221 50.08285386 -23.08085173 44.17980658 -21.625 37.8125 C-21.29242188 36.28979492 -21.29242188 36.28979492 -20.953125 34.73632812 C-20.51740014 32.74865386 -20.07365138 30.76271805 -19.62109375 28.77880859 C-19.2247772 27.00566591 -18.85006683 25.22746046 -18.50390625 23.44384766 C-16.92461418 15.44619316 -12.88755618 9.34718801 -6.8125 3.875 C-4 2 -4 2 0 2 C0 1.34 0 0.68 0 0 Z " fill="#33AD2A" transform="translate(332,114)"/>
<path d="M0 0 C1.13917374 0.00666183 1.13917374 0.00666183 2.30136108 0.01345825 C3.59247299 0.01368484 3.59247299 0.01368484 4.90966797 0.01391602 C5.83991791 0.02423859 6.77016785 0.03456116 7.72860718 0.04519653 C8.68020721 0.04802643 9.63180725 0.05085632 10.61224365 0.05377197 C13.6589706 0.06498914 16.70540621 0.09009641 19.75204468 0.11550903 C21.81454044 0.12553685 23.8770408 0.13466304 25.93954468 0.14285278 C31.00215735 0.16493349 36.06455158 0.19947374 41.12704468 0.24050903 C42.24149965 2.46941899 42.29184754 3.77106009 42.31454468 6.24050903 C42.32872437 6.94175903 42.34290405 7.64300903 42.35751343 8.36550903 C42.12704468 10.24050903 42.12704468 10.24050903 40.12704468 12.24050903 C36.86923218 12.43582153 36.86923218 12.43582153 33.00204468 12.36550903 C31.08005249 12.33843872 31.08005249 12.33843872 29.11923218 12.31082153 C27.63809937 12.27601685 27.63809937 12.27601685 26.12704468 12.24050903 C26.13751831 13.38116821 26.14799194 14.52182739 26.15878296 15.697052 C26.19492184 19.92000198 26.2179228 24.14293823 26.23690796 28.36599731 C26.24697952 30.19544776 26.26063743 32.02488206 26.27792358 33.85427856 C26.30212145 36.48045837 26.313516 39.10642578 26.32235718 41.73269653 C26.33267975 42.55357758 26.34300232 43.37445862 26.3536377 44.22021484 C26.35403652 46.22840046 26.24954007 48.23606285 26.12704468 50.24050903 C24.12704468 52.24050903 24.12704468 52.24050903 21.81454468 52.47097778 C20.92766968 52.4567981 20.04079468 52.44261841 19.12704468 52.42800903 C17.79673218 52.41834106 17.79673218 52.41834106 16.43954468 52.40847778 C14.12704468 52.24050903 14.12704468 52.24050903 12.12704468 51.24050903 C9.9488739 38.91124046 10.3300085 24.59513277 12.12704468 12.24050903 C11.1396228 12.26371216 10.15220093 12.28691528 9.13485718 12.31082153 C7.85352905 12.32886841 6.57220093 12.34691528 5.25204468 12.36550903 C3.33778687 12.40031372 3.33778687 12.40031372 1.38485718 12.43582153 C-1.87295532 12.24050903 -1.87295532 12.24050903 -3.87295532 10.24050903 C-4.13858032 8.36550903 -4.13858032 8.36550903 -4.12295532 6.24050903 C-4.12811157 5.53925903 -4.13326782 4.83800903 -4.13858032 4.11550903 C-3.75429444 1.40290279 -2.72313344 0.3496817 0 0 Z " fill="#4BF607" transform="translate(446.8729553222656,231.75949096679688)"/>
<path d="M0 0 C8.80646465 -0.06984104 17.61283239 -0.12298301 26.41951466 -0.15543652 C30.50983857 -0.17102101 34.5999715 -0.19212543 38.69018555 -0.22631836 C42.64540646 -0.25917182 46.60044491 -0.27690712 50.55579185 -0.28463173 C52.05670731 -0.29012903 53.55761399 -0.30086243 55.0584507 -0.31719017 C74.71649409 -0.52233728 74.71649409 -0.52233728 83 5 C81.68 5.66 80.36 6.32 79 7 C79.495 8.485 79.495 8.485 80 10 C79.67 10.66 79.34 11.32 79 12 C77.02 11.67 75.04 11.34 73 11 C72.34 11.99 71.68 12.98 71 14 C69.02 13.34 67.04 12.68 65 12 C65 12.66 65 13.32 65 14 C64.42228348 13.99777939 63.84456696 13.99555878 63.24934387 13.99327087 C57.23093281 13.97112982 51.21253334 13.95605653 45.1940918 13.94506836 C42.94864431 13.94004281 40.70320008 13.93322135 38.45776367 13.92456055 C35.22834466 13.91241719 31.99896895 13.90675386 28.76953125 13.90234375 C27.76727005 13.89718246 26.76500885 13.89202118 25.7323761 13.88670349 C24.79177841 13.88662796 23.85118073 13.88655243 22.88208008 13.88647461 C22.05823318 13.884254 21.23438629 13.88203339 20.38557434 13.87974548 C17.84244683 14.0079421 15.48159069 14.44270612 13 15 C12.67 14.01 12.34 13.02 12 12 C9.03 11.505 9.03 11.505 6 11 C6.48207356 13.50358872 6.48207356 13.50358872 8 16 C11.51190809 17.22969878 11.51190809 17.22969878 15 18 C15.33 18.66 15.66 19.32 16 20 C18.02463255 20.65213292 18.02463255 20.65213292 20 21 C19.34 21.33 18.68 21.66 18 22 C18 22.66 18 23.32 18 24 C11.59294717 23.73303947 7.53687235 21.54711359 3 17 C0.18323935 12.09338467 -0.62307058 7.5597089 -1 2 C-0.67 1.34 -0.34 0.68 0 0 Z " fill="#798181" transform="translate(289,86)"/>
<path d="M0 0 C14.85 0 29.7 0 45 0 C45 3.3 45 6.6 45 10 C39.72 10 34.44 10 29 10 C29 23.2 29 36.4 29 50 C24.38 50 19.76 50 15 50 C15 36.8 15 23.6 15 10 C10.05 10 5.1 10 0 10 C0 6.7 0 3.4 0 0 Z " fill="#494C4E" transform="translate(365,233)"/>
<path d="M0 0 C1.1999762 -0.00570007 2.39995239 -0.01140015 3.6362915 -0.01727295 C6.16100187 -0.02668201 8.68572429 -0.03324056 11.21044922 -0.03710938 C15.07931513 -0.046878 18.94766336 -0.0779657 22.81640625 -0.109375 C25.27343436 -0.11589975 27.73046624 -0.12115229 30.1875 -0.125 C31.92347443 -0.1435202 31.92347443 -0.1435202 33.69451904 -0.16241455 C34.76953674 -0.15941345 35.84455444 -0.15641235 36.95214844 -0.15332031 C37.89620544 -0.15696594 38.84026245 -0.16061157 39.81292725 -0.16436768 C42.78806235 0.27032592 44.15368837 1.16044881 46.328125 3.203125 C47.40651753 6.50365972 47.91560747 10.02816006 46.328125 13.203125 C37.77460926 13.22628306 29.22110659 13.24405779 20.66756725 13.25493717 C16.69592876 13.2601584 12.7243117 13.2672423 8.75268555 13.27856445 C4.92071128 13.28942027 1.08875764 13.29540757 -2.74323082 13.29800224 C-4.20607516 13.29985162 -5.66891835 13.30346292 -7.13175392 13.30885506 C-9.17876257 13.31610122 -11.22568569 13.31711443 -13.27270508 13.31665039 C-14.43852615 13.318871 -15.60434723 13.32109161 -16.80549622 13.32337952 C-19.671875 13.203125 -19.671875 13.203125 -22.671875 12.203125 C-22.011875 8.573125 -21.351875 4.943125 -20.671875 1.203125 C-13.76624906 0.15414255 -6.97794848 0.02580485 0 0 Z " fill="#5DE316" transform="translate(347.671875,163.796875)"/>
<path d="M0 0 C4.29 0 8.58 0 13 0 C13 16.5 13 33 13 50 C9.37 50 5.74 50 2 50 C1.01 49.01 0.02 48.02 -1 47 C-1 46.34 -1 45.68 -1 45 C-1.99 44.67 -2.98 44.34 -4 44 C-6 41.25 -6 41.25 -8 38 C-8.61875 37.154375 -9.2375 36.30875 -9.875 35.4375 C-11 33 -11 33 -10.1875 30.1875 C-9.795625 29.465625 -9.40375 28.74375 -9 28 C-8.67 28.66 -8.34 29.32 -8 30 C-4.75150023 28.27773504 -4.75150023 28.27773504 -4 25 C-3.01 25 -2.02 25 -1 25 C-0.67 16.75 -0.34 8.5 0 0 Z " fill="#464B4D" transform="translate(347,233)"/>
<path d="M0 0 C1.08152344 0.01417969 2.16304688 0.02835938 3.27734375 0.04296875 C4.90349609 0.05263672 4.90349609 0.05263672 6.5625 0.0625 C9.21484375 0.23046875 9.21484375 0.23046875 10.21484375 1.23046875 C10.31843154 2.75433106 10.35335513 4.28293861 10.36010742 5.81030273 C10.36648727 6.78478867 10.37286713 7.7592746 10.37944031 8.76329041 C10.38055313 9.8236702 10.38166595 10.88404999 10.3828125 11.9765625 C10.3861409 13.05801041 10.3894693 14.13945831 10.39289856 15.25367737 C10.39797252 17.54614841 10.40030674 19.83862687 10.40014648 22.13110352 C10.4023322 25.64937442 10.42048103 29.16733156 10.43945312 32.68554688 C10.44238703 34.907551 10.44437184 37.12955663 10.4453125 39.3515625 C10.45249802 40.40991806 10.45968353 41.46827362 10.46708679 42.55870056 C10.46401016 43.53633865 10.46093353 44.51397675 10.45776367 45.52124023 C10.45918869 46.38426254 10.46061371 47.24728485 10.46208191 48.13645935 C10.21484375 50.23046875 10.21484375 50.23046875 8.21484375 52.23046875 C5.61328125 52.42578125 5.61328125 52.42578125 2.58984375 52.35546875 C1.58695312 52.33742188 0.5840625 52.319375 -0.44921875 52.30078125 C-1.60550781 52.26597656 -1.60550781 52.26597656 -2.78515625 52.23046875 C-4.51859906 49.2181024 -5.0370764 47.04873088 -5.04394531 43.58544922 C-5.05024963 42.67125214 -5.05655396 41.75705505 -5.06304932 40.81515503 C-5.05900085 39.83588043 -5.05495239 38.85660583 -5.05078125 37.84765625 C-5.0526947 36.83704132 -5.05460815 35.82642639 -5.05657959 34.78518677 C-5.05793927 32.65187328 -5.05425801 30.51855145 -5.04589844 28.38525391 C-5.03517376 25.11081504 -5.04581264 21.83692205 -5.05859375 18.5625 C-5.05727255 16.4908842 -5.05471099 14.41926874 -5.05078125 12.34765625 C-5.05482971 11.36433319 -5.05887817 10.38101013 -5.06304932 9.3678894 C-5.056745 8.45999664 -5.05044067 7.55210388 -5.04394531 6.61669922 C-5.04235413 5.8160202 -5.04076294 5.01534119 -5.03912354 4.19039917 C-4.6000605 0.80203759 -3.24893022 0.26884556 0 0 Z " fill="#5DE825" transform="translate(429.78515625,231.76953125)"/>
<path d="M0 0 C4.62 0 9.24 0 14 0 C15.07819958 4.31279833 15.14381496 8.27055583 15.1328125 12.67578125 C15.13376923 13.5191655 15.13472595 14.36254974 15.13571167 15.23149109 C15.13639135 17.01427281 15.13455186 18.79705703 15.13037109 20.57983398 C15.12503988 23.29221241 15.13031293 26.00442373 15.13671875 28.71679688 C15.13605754 30.45312536 15.13477549 32.18945375 15.1328125 33.92578125 C15.13483673 34.73018143 15.13686096 35.5345816 15.13894653 36.36335754 C15.11985361 41.01138727 14.76876994 45.41448196 14 50 C9.38 50 4.76 50 0 50 C0 33.5 0 17 0 0 Z " fill="#515558" transform="translate(290,233)"/>
<path d="M0 0 C2.875 0.3125 2.875 0.3125 6 1 C6.66 1.99 7.32 2.98 8 4 C8.80397217 3.83991455 9.60794434 3.6798291 10.4362793 3.51489258 C14.65586143 2.90524 18.76203832 2.800272 23.01953125 2.76171875 C23.8775383 2.753647 24.73554535 2.74557526 25.61955261 2.73725891 C27.42904679 2.72347971 29.23856629 2.71273023 31.0480957 2.70483398 C32.88573911 2.69331118 34.72334898 2.67285456 36.56079102 2.64331055 C39.2347659 2.60038691 41.90775354 2.58443314 44.58203125 2.57421875 C45.79654716 2.54795662 45.79654716 2.54795662 47.03559875 2.52116394 C54.04976679 2.54744575 59.97888181 4.5211338 65.4375 9 C68.28012816 12.63856404 69.29152296 15.42657417 69.3125 20.0625 C69.32925781 20.91972656 69.34601563 21.77695313 69.36328125 22.66015625 C68.93306709 25.43110553 68.18922321 26.30958715 66 28 C65.67 28 65.34 28 65 28 C65 25.36 65 22.72 65 20 C64.34 19.67 63.68 19.34 63 19 C62.34 18.01 61.68 17.02 61 16 C56.2365327 14.40400796 50.86456015 14.77241353 45.88671875 14.68359375 C44.91716751 14.66281265 43.94761627 14.64203156 42.94868469 14.62062073 C39.86169293 14.55541059 36.77461848 14.4963732 33.6875 14.4375 C31.59048636 14.39428763 29.49348097 14.35067248 27.39648438 14.30664062 C22.26440693 14.19975849 17.13224659 14.09841104 12 14 C12.33 13.01 12.66 12.02 13 11 C11.68 11 10.36 11 9 11 C8.34 10.34 7.68 9.68 7 9 C6.195625 8.731875 5.39125 8.46375 4.5625 8.1875 C1.34597229 6.69691399 0.43684097 5.19297994 -1 2 C-0.67 1.34 -0.34 0.68 0 0 Z " fill="#3BB326" transform="translate(295,96)"/>
<path d="M0 0 C1.50433594 0.01353516 1.50433594 0.01353516 3.0390625 0.02734375 C3.80992187 0.03894531 4.58078125 0.05054688 5.375 0.0625 C5.26041307 1.50086751 5.13290884 2.93820966 5 4.375 C4.93039062 5.17550781 4.86078125 5.97601563 4.7890625 6.80078125 C4.375 9.0625 4.375 9.0625 2.375 12.0625 C0.065 11.7325 -2.245 11.4025 -4.625 11.0625 C-4.625 10.0725 -4.625 9.0825 -4.625 8.0625 C-6.275 10.0425 -7.925 12.0225 -9.625 14.0625 C-4.18 14.5575 -4.18 14.5575 1.375 15.0625 C1.045 18.3625 0.715 21.6625 0.375 25.0625 C-2.46482882 26.00910961 -4.24355329 26.19117774 -7.1875 26.1953125 C-8.06664062 26.19660156 -8.94578125 26.19789063 -9.8515625 26.19921875 C-10.76679688 26.19535156 -11.68203125 26.19148438 -12.625 26.1875 C-13.99785156 26.19330078 -13.99785156 26.19330078 -15.3984375 26.19921875 C-16.71714844 26.19728516 -16.71714844 26.19728516 -18.0625 26.1953125 C-18.86558594 26.19418457 -19.66867187 26.19305664 -20.49609375 26.19189453 C-22.625 26.0625 -22.625 26.0625 -25.625 25.0625 C-25.29850026 19.67525428 -22.15759053 16.79040203 -18.625 13.0625 C-18.150625 12.54816406 -17.67625 12.03382813 -17.1875 11.50390625 C-16.04916033 10.30797201 -14.84210286 9.17817762 -13.625 8.0625 C-12.965 8.0625 -12.305 8.0625 -11.625 8.0625 C-11.295 7.0725 -10.965 6.0825 -10.625 5.0625 C-9.965 4.7325 -9.305 4.4025 -8.625 4.0625 C-8.295 3.0725 -7.965 2.0825 -7.625 1.0625 C-4.98041621 -0.25979189 -2.94738699 -0.03427194 0 0 Z M-0.625 2.0625 C-0.625 5.0625 -0.625 5.0625 -0.625 5.0625 Z " fill="#636B6E" transform="translate(282.625,164.9375)"/>
<path d="M0 0 C2.64199009 2.25744167 3.45233784 3.73848951 3.8125 7.1875 C4.26656187 13.00516766 3.38904635 17.64930618 0.375 22.75 C-4.78574859 27.63913025 -10.04439482 29.46725377 -17.1015625 29.3515625 C-17.89304688 29.31804687 -18.68453125 29.28453125 -19.5 29.25 C-20.73363281 29.22292969 -20.73363281 29.22292969 -21.9921875 29.1953125 C-23.99530804 29.1487283 -25.99781821 29.07700699 -28 29 C-29.09375 25.2734375 -29.09375 25.2734375 -28.25 22.8125 C-27 21 -27 21 -24 20 C-21.66700175 19.96045766 -19.33291811 19.95598268 -17 20 C-17.33 19.01 -17.66 18.02 -18 17 C-14.535 16.505 -14.535 16.505 -11 16 C-10.67 13.36 -10.34 10.72 -10 8 C-9.01 7.67 -8.02 7.34 -7 7 C-6.67 6.01 -6.34 5.02 -6 4 C-4.68 4 -3.36 4 -2 4 C-1.34 3.67 -0.68 3.34 0 3 C0 2.01 0 1.02 0 0 Z " fill="#494E50" transform="translate(230,240)"/>
<path d="M0 0 C0.77923828 0.00902344 1.55847656 0.01804687 2.36132812 0.02734375 C4.26185447 0.05066309 6.16222008 0.08652414 8.0625 0.125 C7.0725 0.455 6.0825 0.785 5.0625 1.125 C5.0625 1.785 5.0625 2.445 5.0625 3.125 C4.36125 3.351875 3.66 3.57875 2.9375 3.8125 C-3.74167355 6.86168793 -7.78073583 11.62162065 -10.9375 18.125 C-12.11822549 22.03481927 -12.88752909 25.98572535 -13.625 30 C-14.01814796 32.06116405 -14.41757626 34.12114324 -14.82421875 36.1796875 C-15.07498169 37.53296143 -15.07498169 37.53296143 -15.33081055 38.91357422 C-15.9375 41.125 -15.9375 41.125 -17.9375 43.125 C-17.5327298 36.74986928 -16.50992938 30.70724521 -15.0625 24.5 C-14.90104492 23.79625244 -14.73958984 23.09250488 -14.57324219 22.36743164 C-13.39209612 17.44962106 -11.78850209 12.83183388 -9.9375 8.125 C-11.8064099 7.43343622 -11.8064099 7.43343622 -13.9375 7.125 C-22.26165309 13.9924263 -25.47874031 23.02563104 -27.5078125 33.2421875 C-27.9375 35.125 -27.9375 35.125 -28.9375 37.125 C-29.5975 37.125 -30.2575 37.125 -30.9375 37.125 C-32.39482062 43.77490964 -33.38886137 50.3392064 -33.9375 57.125 C-34.5975 57.125 -35.2575 57.125 -35.9375 57.125 C-36.2675 58.445 -36.5975 59.765 -36.9375 61.125 C-38.51902805 57.96194391 -37.37363493 54.85573225 -36.75 51.5 C-36.61271484 50.74307861 -36.47542969 49.98615723 -36.33398438 49.20629883 C-35.11545672 42.68785282 -33.58862031 36.27090567 -31.90234375 29.859375 C-31.2888055 27.48470874 -30.71389713 25.09947061 -30.19140625 22.703125 C-28.24179688 13.84727229 -25.35753977 8.49463461 -17.9765625 3.16796875 C-12.09132234 0.15770223 -6.43882722 -0.14345288 0 0 Z " fill="#6EDE27" transform="translate(326.9375,112.875)"/>
<path d="M0 0 C0.99 0 1.98 0 3 0 C3 2.31 3 4.62 3 7 C-7.3020228 7.02330882 -17.60403918 7.04100866 -27.90608311 7.05181217 C-32.69122318 7.05700082 -37.47634502 7.06402425 -42.26147461 7.07543945 C-46.89101779 7.08641268 -51.5205436 7.09230698 -56.1500988 7.09487724 C-57.90446178 7.09670576 -59.65882395 7.10027547 -61.4131794 7.10573006 C-71.99168578 7.13727185 -82.45371248 6.87109454 -93 6 C-93 4.68 -93 3.36 -93 2 C-62.31 2 -31.62 2 0 2 C0 1.34 0 0.68 0 0 Z " fill="#3F454A" transform="translate(416,184)"/>
<path d="M0 0 C2.64 0 5.28 0 8 0 C8 15.18 8 30.36 8 46 C5.36 46 2.72 46 0 46 C0 30.82 0 15.64 0 0 Z " fill="#4CF707" transform="translate(429,235)"/>
<path d="M0 0 C1.13917374 0.00666183 1.13917374 0.00666183 2.30136108 0.01345825 C3.59247299 0.01368484 3.59247299 0.01368484 4.90966797 0.01391602 C5.83991791 0.02423859 6.77016785 0.03456116 7.72860718 0.04519653 C8.68020721 0.04802643 9.63180725 0.05085632 10.61224365 0.05377197 C13.6589706 0.06498914 16.70540621 0.09009641 19.75204468 0.11550903 C21.81454044 0.12553685 23.8770408 0.13466304 25.93954468 0.14285278 C31.00215735 0.16493349 36.06455158 0.19947374 41.12704468 0.24050903 C42.24149965 2.46941899 42.29184754 3.77106009 42.31454468 6.24050903 C42.32872437 6.94175903 42.34290405 7.64300903 42.35751343 8.36550903 C42.12704468 10.24050903 42.12704468 10.24050903 40.12704468 12.24050903 C36.86923218 12.43582153 36.86923218 12.43582153 33.00204468 12.36550903 C31.08005249 12.33843872 31.08005249 12.33843872 29.11923218 12.31082153 C27.63809937 12.27601685 27.63809937 12.27601685 26.12704468 12.24050903 C26.13751831 13.38116821 26.14799194 14.52182739 26.15878296 15.697052 C26.19492184 19.92000198 26.2179228 24.14293823 26.23690796 28.36599731 C26.24697952 30.19544776 26.26063743 32.02488206 26.27792358 33.85427856 C26.30212145 36.48045837 26.313516 39.10642578 26.32235718 41.73269653 C26.33267975 42.55357758 26.34300232 43.37445862 26.3536377 44.22021484 C26.35403652 46.22840046 26.24954007 48.23606285 26.12704468 50.24050903 C24.12704468 52.24050903 24.12704468 52.24050903 21.81454468 52.47097778 C20.92766968 52.4567981 20.04079468 52.44261841 19.12704468 52.42800903 C17.79673218 52.41834106 17.79673218 52.41834106 16.43954468 52.40847778 C14.12704468 52.24050903 14.12704468 52.24050903 12.12704468 51.24050903 C9.9488739 38.91124046 10.3300085 24.59513277 12.12704468 12.24050903 C11.1396228 12.26371216 10.15220093 12.28691528 9.13485718 12.31082153 C7.85352905 12.32886841 6.57220093 12.34691528 5.25204468 12.36550903 C3.33778687 12.40031372 3.33778687 12.40031372 1.38485718 12.43582153 C-1.87295532 12.24050903 -1.87295532 12.24050903 -3.87295532 10.24050903 C-4.13858032 8.36550903 -4.13858032 8.36550903 -4.12295532 6.24050903 C-4.12811157 5.53925903 -4.13326782 4.83800903 -4.13858032 4.11550903 C-3.75429444 1.40290279 -2.72313344 0.3496817 0 0 Z M-1.87295532 2.24050903 C-1.87295532 4.88050903 -1.87295532 7.52050903 -1.87295532 10.24050903 C0.00529359 12.11875795 3.16639744 11.63153301 5.68954468 11.80300903 C6.88708374 11.8867981 8.0846228 11.97058716 9.31845093 12.05691528 C10.24528687 12.11750122 11.1721228 12.17808716 12.12704468 12.24050903 C12.14686401 13.32058228 12.16668335 14.40065552 12.18710327 15.51345825 C12.26306091 19.51304817 12.35179283 23.51226955 12.44442749 27.51150513 C12.48275808 29.2438531 12.51760374 30.97628178 12.54891968 32.70877075 C12.59448232 35.19620652 12.65248971 37.6830847 12.71298218 40.17019653 C12.72453339 40.94733002 12.73608459 41.7244635 12.74798584 42.52514648 C12.71498235 46.84701878 12.71498235 46.84701878 15.12704468 50.24050903 C18.09704468 50.24050903 21.06704468 50.24050903 24.12704468 50.24050903 C24.45704468 37.37050903 24.78704468 24.50050903 25.12704468 11.24050903 C30.07704468 10.91050903 35.02704468 10.58050903 40.12704468 10.24050903 C40.57425827 4.76225823 40.57425827 4.76225823 39.12704468 2.24050903 C25.59704468 2.24050903 12.06704468 2.24050903 -1.87295532 2.24050903 Z " fill="#87DC5F" transform="translate(446.8729553222656,231.75949096679688)"/>
<path d="M0 0 C1.69672852 -0.00580078 1.69672852 -0.00580078 3.42773438 -0.01171875 C4.50990234 -0.01042969 5.59207031 -0.00914062 6.70703125 -0.0078125 C7.68776611 -0.00668457 8.66850098 -0.00555664 9.67895508 -0.00439453 C12.1875 0.125 12.1875 0.125 15.1875 1.125 C14.1875 4.125 14.1875 4.125 12.15234375 5.6796875 C8.42437537 7.49701069 4.79231756 8.39240902 0.75 9.25 C-0.03681152 9.42176758 -0.82362305 9.59353516 -1.63427734 9.77050781 C-8.67683849 11.23622573 -15.6178751 11.89366158 -22.8125 12.125 C-22.1525 8.495 -21.4925 4.865 -20.8125 1.125 C-13.85680949 0.05489377 -7.02939236 -0.02445006 0 0 Z " fill="#3EAC33" transform="translate(347.8125,163.875)"/>
<path d="M0 0 C27.06 0 54.12 0 82 0 C82 0.33 82 0.66 82 1 C81.08476562 1.04898438 80.16953125 1.09796875 79.2265625 1.1484375 C78.03804688 1.22320312 76.84953125 1.29796875 75.625 1.375 C73.84996094 1.47941406 73.84996094 1.47941406 72.0390625 1.5859375 C68.89437681 1.70217346 68.89437681 1.70217346 67 4 C64.12507388 4.24763577 61.34056849 4.37408117 58.4609375 4.4140625 C57.59525146 4.43347397 56.72956543 4.45288544 55.83764648 4.47288513 C53.01686596 4.53334077 50.19605815 4.57950098 47.375 4.625 C45.45392727 4.66274749 43.5328659 4.7010778 41.61181641 4.73999023 C28.07442074 5.00182499 14.53976818 5.12614691 1 5 C0.67 3.35 0.34 1.7 0 0 Z " fill="#666B6F" transform="translate(326,180)"/>
<path d="M0 0 C0.81404297 0.61488281 0.81404297 0.61488281 1.64453125 1.2421875 C2.35996094 1.78101562 3.07539063 2.31984375 3.8125 2.875 C4.52019531 3.40867187 5.22789062 3.94234375 5.95703125 4.4921875 C12.79040987 9.53556063 19.75817405 9.14388308 27.94921875 9.2109375 C29.86784747 9.23897926 31.78646717 9.26764349 33.70507812 9.296875 C36.70711262 9.33826538 39.70897357 9.37518725 42.71118164 9.40136719 C45.62420514 9.42892249 48.53648204 9.47475631 51.44921875 9.5234375 C52.34718674 9.52669037 53.24515472 9.52994324 54.17033386 9.53329468 C55.42732841 9.55814438 55.42732841 9.55814438 56.7097168 9.58349609 C57.4436113 9.59158295 58.1775058 9.5996698 58.93363953 9.60800171 C61.55477717 10.10524384 62.99112477 11.29026397 65 13 C64.42228348 12.99777939 63.84456696 12.99555878 63.24934387 12.99327087 C57.23093281 12.97112982 51.21253334 12.95605653 45.1940918 12.94506836 C42.94864431 12.94004281 40.70320008 12.93322135 38.45776367 12.92456055 C35.22834466 12.91241719 31.99896895 12.90675386 28.76953125 12.90234375 C27.76727005 12.89718246 26.76500885 12.89202118 25.7323761 12.88670349 C24.79177841 12.88662796 23.85118073 12.88655243 22.88208008 12.88647461 C22.05823318 12.884254 21.23438629 12.88203339 20.38557434 12.87974548 C17.84244683 13.0079421 15.48159069 13.44270612 13 14 C12.67 13.01 12.34 12.02 12 11 C9.03 10.505 9.03 10.505 6 10 C6.48207356 12.50358872 6.48207356 12.50358872 8 15 C11.51190809 16.22969878 11.51190809 16.22969878 15 17 C15.33 17.66 15.66 18.32 16 19 C18.02463255 19.65213292 18.02463255 19.65213292 20 20 C19.34 20.33 18.68 20.66 18 21 C18 21.66 18 22.32 18 23 C11.59294717 22.73303947 7.53687235 20.54711359 3 16 C0.18574444 11.09774838 -0.6169301 6.55451351 -1 1 C-0.67 0.67 -0.34 0.34 0 0 Z " fill="#69CD2F" transform="translate(289,87)"/>
<path d="M0 0 C0.33 0 0.66 0 1 0 C1.36185869 12.07535846 -2.19216359 26.29602244 -8 37 C-10.09375 38.1640625 -10.09375 38.1640625 -12 39 C-12.33 39.99 -12.66 40.98 -13 42 C-6.565 41.505 -6.565 41.505 0 41 C-0.33 40.01 -0.66 39.02 -1 38 C1.97 37.505 1.97 37.505 5 37 C5.103125 36.236875 5.20625 35.47375 5.3125 34.6875 C6.04364039 31.82940576 6.76951913 30.84257115 9 29 C9.66 29.33 10.32 29.66 11 30 C7.9352415 36.93603239 3.56735271 41.24722702 -3 45 C-7.81169616 46.09196619 -12.47363498 46.12011098 -17.375 46.0625 C-18.11105469 46.05798828 -18.84710938 46.05347656 -19.60546875 46.04882812 C-21.40368158 46.03715142 -23.20185197 46.01922011 -25 46 C-24.53752467 38.80729161 -23.74922933 31.9969173 -22 25 C-21.67 25 -21.34 25 -21 25 C-21 30.94 -21 36.88 -21 43 C-12.08973052 37.65383831 -7.48853401 31.67942376 -4.8046875 21.6328125 C-3.59937812 16.19136723 -2.55367053 10.73127304 -1.61328125 5.23828125 C-1 2 -1 2 0 0 Z " fill="#46AE39" transform="translate(306,166)"/>
<path d="M0 0 C13.53 0 27.06 0 41 0 C42 2 42 2 42 8 C37.05 8.33 32.1 8.66 27 9 C26.67 21.87 26.34 34.74 26 48 C23.03 48 20.06 48 17 48 C14.05807216 45.05807216 14.64462603 41.87809027 14.5859375 37.9296875 C14.56657135 37.13345978 14.5472052 36.33723206 14.5272522 35.51687622 C14.46739526 32.96969366 14.42104721 30.42246605 14.375 27.875 C14.33682579 26.1497197 14.29777439 24.42445857 14.2578125 22.69921875 C14.16168891 18.46630124 14.07768092 14.23329451 14 10 C13.07316406 9.93941406 12.14632813 9.87882813 11.19140625 9.81640625 C9.99386719 9.73261719 8.79632813 9.64882812 7.5625 9.5625 C6.36753906 9.48128906 5.17257812 9.40007812 3.94140625 9.31640625 C1 9 1 9 0 8 C0 5.36 0 2.72 0 0 Z M2 1 C2 2.98 2 4.96 2 7 C2.92683594 7.06058594 3.85367187 7.12117187 4.80859375 7.18359375 C6.00613281 7.26738281 7.20367187 7.35117188 8.4375 7.4375 C9.63246094 7.51871094 10.82742188 7.59992188 12.05859375 7.68359375 C15 8 15 8 16 9 C16.14776966 11.72536005 16.23502368 14.42862291 16.28125 17.15625 C16.30886414 18.38245056 16.30886414 18.38245056 16.33703613 19.63342285 C16.41598605 23.14593984 16.48354529 26.65865675 16.55224609 30.17138672 C16.60386124 32.72894108 16.66115657 35.28632444 16.71875 37.84375 C16.73232544 38.64478149 16.74590088 39.44581299 16.7598877 40.27111816 C16.50168515 43.93828823 16.50168515 43.93828823 18 47 C20.31 47 22.62 47 25 47 C25 34.13 25 21.26 25 8 C29.95 7.67 34.9 7.34 40 7 C40 5.02 40 3.04 40 1 C27.46 1 14.92 1 2 1 Z " fill="#5CE721" transform="translate(445,234)"/>
<path d="M0 0 C6.76746582 -0.35004134 10.93253288 0.35856998 16.25 4.9375 C19.30212369 8.53464578 20.29113817 11.3415347 20.3125 16.0625 C20.32925781 16.91972656 20.34601563 17.77695313 20.36328125 18.66015625 C19.93306709 21.43110553 19.18922321 22.30958715 17 24 C16.67 24 16.34 24 16 24 C16 21.36 16 18.72 16 16 C15.34 15.67 14.68 15.34 14 15 C13.34 14.01 12.68 13.02 12 12 C8.5303087 10.98387346 5.08031252 10.82436976 1.48046875 10.68359375 C0.45888672 10.64169922 -0.56269531 10.59980469 -1.61523438 10.55664062 C-2.67033203 10.51732422 -3.72542969 10.47800781 -4.8125 10.4375 C-6.42415039 10.37272461 -6.42415039 10.37272461 -8.06835938 10.30664062 C-10.71212082 10.20089017 -13.3559711 10.09879767 -16 10 C-16 9.67 -16 9.34 -16 9 C-14.90300781 8.87882812 -13.80601562 8.75765625 -12.67578125 8.6328125 C-11.22131177 8.46390637 -9.76688696 8.29461519 -8.3125 8.125 C-7.59126953 8.04636719 -6.87003906 7.96773438 -6.12695312 7.88671875 C-2.0731077 7.4054403 1.20380128 6.56355495 5 5 C5.66 5.33 6.32 5.66 7 6 C6.67 4.68 6.34 3.36 6 2 C3.03 1.505 3.03 1.505 0 1 C0 0.67 0 0.34 0 0 Z " fill="#148E3A" transform="translate(344,100)"/>
<path d="M0 0 C4.08389913 -0.69754782 8.23857018 -0.50921254 12.375 -0.5 C14.09976562 -0.54253906 14.09976562 -0.54253906 15.859375 -0.5859375 C24.33262083 -0.60568866 24.33262083 -0.60568866 27.7890625 2.53125 C28.18867188 3.3459375 28.58828125 4.160625 29 5 C25.60496064 7.05241161 22.96260148 7.25716403 19.02734375 7.265625 C17.30741211 7.26949219 17.30741211 7.26949219 15.55273438 7.2734375 C14.35970703 7.26570312 13.16667969 7.25796875 11.9375 7.25 C10.74060547 7.25773438 9.54371094 7.26546875 8.31054688 7.2734375 C6.59254883 7.26957031 6.59254883 7.26957031 4.83984375 7.265625 C3.79175537 7.26336914 2.74366699 7.26111328 1.66381836 7.25878906 C-1 7 -1 7 -4 5 C-3.34 4.34 -2.68 3.68 -2 3 C-1.34 2.01 -0.68 1.02 0 0 Z " fill="#62F107" transform="translate(364,167)"/>
<path d="M0 0 C1.08152344 0.01417969 2.16304688 0.02835938 3.27734375 0.04296875 C4.90349609 0.05263672 4.90349609 0.05263672 6.5625 0.0625 C9.21484375 0.23046875 9.21484375 0.23046875 10.21484375 1.23046875 C10.31843154 2.75433106 10.35335513 4.28293861 10.36010742 5.81030273 C10.36648727 6.78478867 10.37286713 7.7592746 10.37944031 8.76329041 C10.38055313 9.8236702 10.38166595 10.88404999 10.3828125 11.9765625 C10.3861409 13.05801041 10.3894693 14.13945831 10.39289856 15.25367737 C10.39797252 17.54614841 10.40030674 19.83862687 10.40014648 22.13110352 C10.4023322 25.64937442 10.42048103 29.16733156 10.43945312 32.68554688 C10.44238703 34.907551 10.44437184 37.12955663 10.4453125 39.3515625 C10.45249802 40.40991806 10.45968353 41.46827362 10.46708679 42.55870056 C10.46401016 43.53633865 10.46093353 44.51397675 10.45776367 45.52124023 C10.45918869 46.38426254 10.46061371 47.24728485 10.46208191 48.13645935 C10.21484375 50.23046875 10.21484375 50.23046875 8.21484375 52.23046875 C5.61328125 52.42578125 5.61328125 52.42578125 2.58984375 52.35546875 C1.58695312 52.33742188 0.5840625 52.319375 -0.44921875 52.30078125 C-1.60550781 52.26597656 -1.60550781 52.26597656 -2.78515625 52.23046875 C-4.51859906 49.2181024 -5.0370764 47.04873088 -5.04394531 43.58544922 C-5.05024963 42.67125214 -5.05655396 41.75705505 -5.06304932 40.81515503 C-5.05900085 39.83588043 -5.05495239 38.85660583 -5.05078125 37.84765625 C-5.0526947 36.83704132 -5.05460815 35.82642639 -5.05657959 34.78518677 C-5.05793927 32.65187328 -5.05425801 30.51855145 -5.04589844 28.38525391 C-5.03517376 25.11081504 -5.04581264 21.83692205 -5.05859375 18.5625 C-5.05727255 16.4908842 -5.05471099 14.41926874 -5.05078125 12.34765625 C-5.05482971 11.36433319 -5.05887817 10.38101013 -5.06304932 9.3678894 C-5.056745 8.45999664 -5.05044067 7.55210388 -5.04394531 6.61669922 C-5.04235413 5.8160202 -5.04076294 5.01534119 -5.03912354 4.19039917 C-4.6000605 0.80203759 -3.24893022 0.26884556 0 0 Z M-2.78515625 2.23046875 C-2.78515625 18.07046875 -2.78515625 33.91046875 -2.78515625 50.23046875 C0.84484375 50.23046875 4.47484375 50.23046875 8.21484375 50.23046875 C9.00211433 47.08138641 9.3409124 44.98858505 9.34423828 41.8449707 C9.34739044 40.98760818 9.3505426 40.13024567 9.35379028 39.24690247 C9.35176605 38.33011215 9.34974182 37.41332184 9.34765625 36.46875 C9.34861298 35.52235153 9.3495697 34.57595306 9.35055542 33.60087585 C9.351235 31.60460341 9.34939618 29.60832873 9.34521484 27.61206055 C9.33984566 24.54405818 9.34517647 21.47620104 9.3515625 18.40820312 C9.35090203 16.47005176 9.34962151 14.53190048 9.34765625 12.59375 C9.3506926 11.20945549 9.3506926 11.20945549 9.35379028 9.79719543 C9.76012223 5.68928719 9.76012223 5.68928719 8.21484375 2.23046875 C4.58484375 2.23046875 0.95484375 2.23046875 -2.78515625 2.23046875 Z " fill="#90DA6E" transform="translate(429.78515625,231.76953125)"/>
<path d="M0 0 C1.50433594 0.01353516 1.50433594 0.01353516 3.0390625 0.02734375 C3.80992187 0.03894531 4.58078125 0.05054688 5.375 0.0625 C5.26041307 1.50086751 5.13290884 2.93820966 5 4.375 C4.93039062 5.17550781 4.86078125 5.97601563 4.7890625 6.80078125 C4.375 9.0625 4.375 9.0625 2.375 12.0625 C0.065 11.7325 -2.245 11.4025 -4.625 11.0625 C-4.625 10.0725 -4.625 9.0825 -4.625 8.0625 C-6.275 10.0425 -7.925 12.0225 -9.625 14.0625 C-11.275 12.4125 -12.925 10.7625 -14.625 9.0625 C-13.635 8.7325 -12.645 8.4025 -11.625 8.0625 C-11.295 7.0725 -10.965 6.0825 -10.625 5.0625 C-9.965 4.7325 -9.305 4.4025 -8.625 4.0625 C-8.295 3.0725 -7.965 2.0825 -7.625 1.0625 C-4.98041621 -0.25979189 -2.94738699 -0.03427194 0 0 Z M-0.625 2.0625 C-0.625 5.0625 -0.625 5.0625 -0.625 5.0625 Z " fill="#898F8F" transform="translate(282.625,164.9375)"/>
<path d="M0 0 C1.55649892 0.11056461 3.11662536 0.17531972 4.67675781 0.20532227 C6.05773651 0.2352401 6.05773651 0.2352401 7.46661377 0.26576233 C8.45216248 0.28247482 9.43771118 0.29918732 10.453125 0.31640625 C11.46848328 0.33718735 12.48384155 0.35796844 13.52996826 0.37937927 C16.76991073 0.44470597 20.00993348 0.50368137 23.25 0.5625 C25.44792493 0.60570126 27.64584178 0.64931607 29.84375 0.69335938 C35.22908206 0.80037007 40.6144938 0.90216773 46 1 C46 1.66 46 2.32 46 3 C24.22 3 2.44 3 -20 3 C-16.6581815 0.772121 -14.50161606 0.40716792 -10.5625 -0.1875 C-9.42941406 -0.36667969 -8.29632813 -0.54585937 -7.12890625 -0.73046875 C-4.19788894 -0.98295339 -2.76279349 -0.6979365 0 0 Z " fill="#88C759" transform="translate(348,174)"/>
<path d="M0 0 C4.29 0 8.58 0 13 0 C14 5 14 5 14 8 C21.92 8 29.84 8 38 8 C38 8.66 38 9.32 38 10 C34.64585201 10.02929977 31.29173747 10.0468989 27.9375 10.0625 C26.99455078 10.07087891 26.05160156 10.07925781 25.08007812 10.08789062 C10.59091556 10.13837551 10.59091556 10.13837551 4.5625 5 C3.69753906 4.278125 2.83257812 3.55625 1.94140625 2.8125 C1.30074219 2.214375 0.66007812 1.61625 0 1 C0 0.67 0 0.34 0 0 Z " fill="#557552" transform="translate(290,87)"/>
<path d="M0 0 C8.58 0 17.16 0 26 0 C25.67 1.65 25.34 3.3 25 5 C21.3958502 5.02900455 17.79173038 5.04680018 14.1875 5.0625 C12.65125977 5.07506836 12.65125977 5.07506836 11.08398438 5.08789062 C9.60961914 5.09272461 9.60961914 5.09272461 8.10546875 5.09765625 C7.19949951 5.10289307 6.29353027 5.10812988 5.36010742 5.11352539 C3 5 3 5 0 4 C0 2.68 0 1.36 0 0 Z " fill="#38404D" transform="translate(257,186)"/>
<path d="M0 0 C0.66 0 1.32 0 2 0 C1.9278125 0.66386719 1.855625 1.32773438 1.78125 2.01171875 C1.6884375 2.89472656 1.595625 3.77773437 1.5 4.6875 C1.4071875 5.55761719 1.314375 6.42773438 1.21875 7.32421875 C1.00840136 9.89723339 0.96280856 12.41984364 1 15 C2.32 15.66 3.64 16.32 5 17 C5 16.34 5 15.68 5 15 C5.66 15 6.32 15 7 15 C7.12375 14.360625 7.2475 13.72125 7.375 13.0625 C7.58125 12.381875 7.7875 11.70125 8 11 C8.66 10.67 9.32 10.34 10 10 C10.46651207 7.87423218 10.46651207 7.87423218 10.625 5.4375 C10.69976562 4.61121094 10.77453125 3.78492188 10.8515625 2.93359375 C10.90054687 2.29550781 10.94953125 1.65742188 11 1 C12.32 0.67 13.64 0.34 15 0 C14.00125661 7.3530673 11.52255285 12.26198865 6.5625 17.625 C6.08385498 18.14545898 5.60520996 18.66591797 5.11206055 19.20214844 C2.59829782 21.78891785 0.67617566 23.63498965 -3 24 C-3.28634741 15.63229237 -2.65750226 7.97250679 0 0 Z " fill="#0D8C35" transform="translate(287,186)"/>
<path d="M0 0 C5.5 -0.36666667 5.5 -0.36666667 7.875 1.375 C9 3 9 3 9 5 C9.598125 5.2475 10.19625 5.495 10.8125 5.75 C13.28647521 7.16370012 14.43370255 8.65055383 16 11 C14.33333333 11 12.66666667 11 11 11 C10.67 11.99 10.34 12.98 10 14 C8.68 12.35 7.36 10.7 6 9 C5.67 9.99 5.34 10.98 5 12 C3.35 11.67 1.7 11.34 0 11 C0 7.37 0 3.74 0 0 Z " fill="#7D8377" transform="translate(394,165)"/>
<path d="M0 0 C0 3.00053138 -0.50039906 5.0260524 -1.375 7.875 C-1.63023437 8.71804687 -1.88546875 9.56109375 -2.1484375 10.4296875 C-3 13 -3 13 -4.0390625 15.421875 C-5.15307061 18.41067725 -5.57969677 21.21522033 -6 24.375 C-6.50870668 27.94395789 -7.06277987 31.21788308 -8.0625 34.6875 C-9.30717995 39.08536914 -9.65246877 43.45465727 -10 48 C-10.66 48 -11.32 48 -12 48 C-12.33 49.32 -12.66 50.64 -13 52 C-14.58152805 48.83694391 -13.43613493 45.73073225 -12.8125 42.375 C-12.67521484 41.61807861 -12.53792969 40.86115723 -12.39648438 40.08129883 C-11.17849592 33.56573726 -9.65179043 27.15151946 -7.96875 20.7421875 C-7.34698058 18.3403524 -6.76039708 15.92897493 -6.21875 13.5078125 C-4.06265482 3.92256327 -4.06265482 3.92256327 0 0 Z " fill="#8FD36B" transform="translate(303,122)"/>
<path d="M0 0 C0.99 0 1.98 0 3 0 C2.67 3.3 2.34 6.6 2 10 C-0.97 9.505 -0.97 9.505 -4 9 C-4 8.34 -4 7.68 -4 7 C-4.391875 7.391875 -4.78375 7.78375 -5.1875 8.1875 C-6.57389533 9.57389533 -8.02445367 10.89639696 -9.5 12.1875 C-12.60026439 15.67529743 -13.57786247 18.58388872 -15 23 C-15.33 23 -15.66 23 -16 23 C-16.76170296 17.0333268 -15.21935797 13.91969201 -11.71875 9.08984375 C-9.3332556 6.18929942 -7.12401998 4.10531781 -4 2 C-2.68 2 -1.36 2 0 2 C0 1.34 0 0.68 0 0 Z " fill="#158C35" transform="translate(332,114)"/>
<path d="M0 0 C4.19918185 -0.07430494 8.39801274 -0.12867413 12.59765625 -0.16479492 C14.02545846 -0.17985681 15.4532146 -0.20031062 16.88085938 -0.22631836 C18.93631373 -0.26281842 20.99115505 -0.27975166 23.046875 -0.29296875 C24.90070801 -0.31653442 24.90070801 -0.31653442 26.79199219 -0.34057617 C30.24761254 0.02628763 31.63452486 0.48802587 34 3 C34.75 6.6875 34.75 6.6875 35 10 C33 8 31 6 29 4 C27.27926244 3.8664945 25.55350726 3.79653841 23.828125 3.75390625 C22.77109375 3.72103516 21.7140625 3.68816406 20.625 3.65429688 C18.39071691 3.59352644 16.15633768 3.53618535 13.921875 3.48242188 C12.8596875 3.44826172 11.7975 3.41410156 10.703125 3.37890625 C9.24374512 3.34132202 9.24374512 3.34132202 7.75488281 3.30297852 C4.85987147 2.98458884 2.63996724 2.20241788 0 1 C0 0.67 0 0.34 0 0 Z " fill="#82DB42" transform="translate(360,164)"/>
<path d="M0 0 C6.15640091 -0.0495439 12.31268499 -0.08578791 18.46923828 -0.10986328 C20.56235781 -0.119903 22.65546338 -0.13353753 24.74853516 -0.15087891 C27.76207939 -0.17521632 30.7754377 -0.18650357 33.7890625 -0.1953125 C34.72054108 -0.20563507 35.65201965 -0.21595764 36.61172485 -0.22659302 C47.69191686 -0.22849407 47.69191686 -0.22849407 51.8125 3.75 C53.25437417 6.48197211 53.65301967 8.9465731 54 12 C54.99 11.67 55.98 11.34 57 11 C57 12.98 57 14.96 57 17 C55.35 17.66 53.7 18.32 52 19 C51.90203125 18.18015625 51.8040625 17.3603125 51.703125 16.515625 C51.55359375 15.43796875 51.4040625 14.3603125 51.25 13.25 C51.11078125 12.18265625 50.9715625 11.1153125 50.828125 10.015625 C49.87568655 6.54731141 48.79277783 5.21353502 46 3 C43.26437166 2.08812389 41.53854525 1.85269741 38.7121582 1.79467773 C37.85149246 1.77473251 36.99082672 1.75478729 36.1040802 1.73423767 C34.71644722 1.70916893 34.71644722 1.70916893 33.30078125 1.68359375 C32.35059616 1.66281265 31.40041107 1.64203156 30.4214325 1.62062073 C27.38519544 1.55521948 24.34887169 1.49628396 21.3125 1.4375 C19.25454831 1.39430583 17.19660541 1.35069124 15.13867188 1.30664062 C10.09253684 1.19954769 5.04631457 1.09825354 0 1 C0 0.67 0 0.34 0 0 Z " fill="#78B282" transform="translate(307,110)"/>
<path d="M0 0 C0.61875 0.639375 1.2375 1.27875 1.875 1.9375 C3.82597612 4.03883584 3.82597612 4.03883584 6 5 C6 6.32 6 7.64 6 9 C6.66 9.33 7.32 9.66 8 10 C10.09968812 17.5943265 10.26545147 26.23603125 6.9375 33.4375 C4.34315616 38.00742176 1.19078168 40.87745679 -3 44 C-3.66 43.67 -4.32 43.34 -5 43 C-4.31164062 42.50693359 -4.31164062 42.50693359 -3.609375 42.00390625 C2.46729177 37.29321289 5.39532564 32.55217116 6.4140625 24.8828125 C6.75495341 17.2576211 5.4384777 11.29456838 1 5 C0.34 4.67 -0.32 4.34 -1 4 C-0.67 2.68 -0.34 1.36 0 0 Z " fill="#7B8386" transform="translate(364,100)"/>
<path d="M0 0 C4.95 0 9.9 0 15 0 C15 0.33 15 0.66 15 1 C12.36 1.33 9.72 1.66 7 2 C6.34 4.64 5.68 7.28 5 10 C5.99 10.33 6.98 10.66 8 11 C7.01 11.33 6.02 11.66 5 12 C4.34 11.67 3.68 11.34 3 11 C3.875 5.25 3.875 5.25 5 3 C4.34 3 3.68 3 3 3 C1.68 8.94 0.36 14.88 -1 21 C-2.32 21.33 -3.64 21.66 -5 22 C-3.35 14.74 -1.7 7.48 0 0 Z " fill="#2A5132" transform="translate(329,138)"/>
<path d="M0 0 C-0.7425 0.70125 -1.485 1.4025 -2.25 2.125 C-8.99542723 9.17703756 -11.75068819 16.70376209 -13.47265625 26.1171875 C-14 28 -14 28 -16 30 C-16.61602529 22.11145395 -15.02751781 16.24164517 -12 9 C-11.76152344 8.29230469 -11.52304687 7.58460937 -11.27734375 6.85546875 C-10.06069961 3.39495398 -9.09218795 2.06145864 -6 0 C-3 -1 -3 -1 0 0 Z " fill="#6CEC0D" transform="translate(313,120)"/>
<path d="M0 0 C0.33 0.66 0.66 1.32 1 2 C1.763125 2 2.52625 2 3.3125 2 C6.91234927 2 9.72013554 2.0689769 13.125 3.25 C13.82882812 3.48203125 14.53265625 3.7140625 15.2578125 3.953125 C17 5 17 5 17.7421875 7.109375 C17.82726562 7.73328125 17.91234375 8.3571875 18 9 C15.75165504 9.13526139 13.50097486 9.23210804 11.25 9.3125 C9.99703125 9.37050781 8.7440625 9.42851562 7.453125 9.48828125 C4 9 4 9 1.546875 6.73046875 C0 4 0 4 0 0 Z " fill="#55595A" transform="translate(267,274)"/>
<path d="M0 0 C5.90817518 -0.07417552 11.81607911 -0.12861434 17.72460938 -0.16479492 C19.73442303 -0.17987826 21.74420379 -0.20034772 23.75390625 -0.22631836 C26.64331176 -0.26272144 29.53228196 -0.27973088 32.421875 -0.29296875 C33.76895538 -0.31619453 33.76895538 -0.31619453 35.14324951 -0.33988953 C41.41537533 -0.34158031 41.41537533 -0.34158031 44.59863281 1.51831055 C45.06108398 2.00726807 45.52353516 2.49622559 46 3 C40.09151732 2.90641986 34.18344219 2.80031514 28.27539062 2.68261719 C26.26568762 2.64434331 24.25591649 2.60948764 22.24609375 2.578125 C19.3565232 2.53244009 16.46742104 2.47445113 13.578125 2.4140625 C12.68007141 2.40251129 11.78201782 2.39096008 10.85675049 2.37905884 C9.5958963 2.3492543 9.5958963 2.3492543 8.30957031 2.31884766 C7.57232727 2.30552399 6.83508423 2.29220032 6.07550049 2.2784729 C3.71527623 1.9617982 2.06079263 1.16703148 0 0 Z " fill="#8DD77E" transform="translate(308,97)"/>
<path d="M0 0 C0.33 0 0.66 0 1 0 C1 3.3 1 6.6 1 10 C1.66 10.33 2.32 10.66 3 11 C2.34 11 1.68 11 1 11 C0.17361624 13.89234315 0 15.88742431 0 19 C-0.66 19.99 -1.32 20.98 -2 22 C-1.34 22.33 -0.68 22.66 0 23 C-0.99 23.33 -1.98 23.66 -3 24 C-3.33 24.66 -3.66 25.32 -4 26 C-4.66 26 -5.32 26 -6 26 C-6.33 27.65 -6.66 29.3 -7 31 C-8.29012683 27.12961951 -7.54732624 24.84405573 -6.6875 20.875 C-6.42324219 19.61429688 -6.15898437 18.35359375 -5.88671875 17.0546875 C-5.59410156 16.04664063 -5.30148437 15.03859375 -5 14 C-4.34 13.67 -3.68 13.34 -3 13 C-2.67 12.01 -2.34 11.02 -2 10 C-1.34 10 -0.68 10 0 10 C0 6.7 0 3.4 0 0 Z " fill="#4DB047" transform="translate(293,160)"/>
<path d="M0 0 C4.49668686 0.70536264 7.1678907 1.52535301 9.9375 5.25 C13.14346229 10.9658933 12.79151432 17.65122196 12 24 C11.34 24.66 10.68 25.32 10 26 C9.92652344 24.69675781 9.92652344 24.69675781 9.8515625 23.3671875 C9.77679688 22.21476562 9.70203125 21.06234375 9.625 19.875 C9.55539062 18.73804687 9.48578125 17.60109375 9.4140625 16.4296875 C9.00252933 13.02095048 8.28883332 10.17755996 7 7 C5.21734114 5.6501992 5.21734114 5.6501992 3 5 C2.0925 4.62875 1.185 4.2575 0.25 3.875 C-0.4925 3.58625 -1.235 3.2975 -2 3 C-1.34 2.67 -0.68 2.34 0 2 C0 1.34 0 0.68 0 0 Z " fill="#489257" transform="translate(354,98)"/>
<path d="M0 0 C0.33 0 0.66 0 1 0 C1.02505615 1.08531006 1.0501123 2.17062012 1.07592773 3.28881836 C1.16983755 7.301316 1.27009767 11.31363382 1.37231445 15.32592773 C1.41572573 17.06514288 1.45739612 18.80440235 1.49731445 20.54370117 C1.55486768 23.03838488 1.6186042 25.5328441 1.68359375 28.02734375 C1.70030624 28.80963852 1.71701874 29.59193329 1.73423767 30.39793396 C1.50648731 33.99871781 1.50648731 33.99871781 3 37 C4.68183948 37.23287008 6.3712416 37.41264166 8.0625 37.5625 C8.98160156 37.64628906 9.90070313 37.73007812 10.84765625 37.81640625 C11.91306641 37.90728516 11.91306641 37.90728516 13 38 C12.67 38.66 12.34 39.32 12 40 C10.37509046 40.02698189 8.75005367 40.04638757 7.125 40.0625 C5.76761719 40.07990234 5.76761719 40.07990234 4.3828125 40.09765625 C2 40 2 40 0 39 C-2.17817078 26.67073142 -1.79703618 12.35462374 0 0 Z " fill="#96E370" transform="translate(459,244)"/>
<path d="M0 0 C0 2.83579505 -0.39169524 4.88014619 -1.09375 7.60546875 C-1.31933594 8.50716797 -1.54492188 9.40886719 -1.77734375 10.33789062 C-2.25446225 12.21928491 -2.73614452 14.09952844 -3.22265625 15.97851562 C-4.59639763 21.50880593 -5.20079971 26.30858335 -5 32 C-5.28674418 34.00720923 -5.60235737 36.01178687 -6 38 C-6.66 38 -7.32 38 -8 38 C-8 36.68 -8 35.36 -8 34 C-8.66 34 -9.32 34 -10 34 C-8.94886377 28.66552841 -7.75849989 23.36604468 -6.5625 18.0625 C-6.34529297 17.08603516 -6.12808594 16.10957031 -5.90429688 15.10351562 C-3.61784465 4.97583685 -3.61784465 4.97583685 -2 1 C-1.34 0.67 -0.68 0.34 0 0 Z " fill="#5EDF1F" transform="translate(315,126)"/>
<path d="M0 0 C1.32 0.66 2.64 1.32 4 2 C4 2.66 4 3.32 4 4 C12.58 4 21.16 4 30 4 C29.67 4.66 29.34 5.32 29 6 C19.1 6 9.2 6 -1 6 C-1.33 7.32 -1.66 8.64 -2 10 C-1.85950482 8.52031676 -1.71245174 7.04125484 -1.5625 5.5625 C-1.48128906 4.73878906 -1.40007812 3.91507813 -1.31640625 3.06640625 C-1 1 -1 1 0 0 Z " fill="#747B7D" transform="translate(324,180)"/>
<path d="M0 0 C0.99 0 1.98 0 3 0 C2.88541307 1.43836751 2.75790884 2.87570966 2.625 4.3125 C2.55539062 5.11300781 2.48578125 5.91351563 2.4140625 6.73828125 C2 9 2 9 0 12 C-2.31 11.67 -4.62 11.34 -7 11 C-6.67 10.01 -6.34 9.02 -6 8 C-5.34 8 -4.68 8 -4 8 C-3.8453125 7.13375 -3.8453125 7.13375 -3.6875 6.25 C-2.88350079 3.61872985 -1.86932485 2.01311907 0 0 Z " fill="#6CA87A" transform="translate(285,165)"/>
<path d="M0 0 C2 2 2 2 2.01171875 4.27734375 C1.90472656 5.15519531 1.79773438 6.03304687 1.6875 6.9375 C1.58824219 7.81277344 1.48898437 8.68804687 1.38671875 9.58984375 C1 12 1 12 0 15 C4.29 15 8.58 15 13 15 C13 15.33 13 15.66 13 16 C8.05 16 3.1 16 -2 16 C-2 17.65 -2 19.3 -2 21 C-2.33 21 -2.66 21 -3 21 C-3 14.4 -3 7.8 -3 1 C-2.01 0.67 -1.02 0.34 0 0 Z " fill="#5A9C6D" transform="translate(331,122)"/>
<path d="M0 0 C0.77923828 0.00902344 1.55847656 0.01804687 2.36132812 0.02734375 C4.26185447 0.05066309 6.16222008 0.08652414 8.0625 0.125 C7.0725 0.455 6.0825 0.785 5.0625 1.125 C5.0625 1.785 5.0625 2.445 5.0625 3.125 C3.25652344 3.07279297 3.25652344 3.07279297 1.4140625 3.01953125 C-0.16144442 2.9913972 -1.73696638 2.96409663 -3.3125 2.9375 C-4.50359375 2.89979492 -4.50359375 2.89979492 -5.71875 2.86132812 C-7.79336148 2.83495595 -9.86850865 2.97013538 -11.9375 3.125 C-12.9275 4.61 -12.9275 4.61 -13.9375 6.125 C-16.1015625 7.07421875 -16.1015625 7.07421875 -18.5625 7.8125 C-19.78839844 8.18955078 -19.78839844 8.18955078 -21.0390625 8.57421875 C-21.66554688 8.75597656 -22.29203125 8.93773438 -22.9375 9.125 C-22.9375 8.465 -22.9375 7.805 -22.9375 7.125 C-15.72882364 1.24036624 -9.16484578 -0.2041868 0 0 Z " fill="#A8DD87" transform="translate(326.9375,112.875)"/>
<path d="M0 0 C0.33 0 0.66 0 1 0 C0.67 6.6 0.34 13.2 0 20 C9.405 19.505 9.405 19.505 19 19 C19 19.33 19 19.66 19 20 C14.14270355 20.97299156 9.5499375 21.12038805 4.625 21.0625 C3.88894531 21.05798828 3.15289062 21.05347656 2.39453125 21.04882812 C0.59631842 21.03715142 -1.20185197 21.01922011 -3 21 C-2.53752467 13.80729161 -1.74922933 6.9969173 0 0 Z " fill="#6DAC78" transform="translate(284,191)"/>
<path d="M0 0 C0.33 0 0.66 0 1 0 C1.17626728 5.64684825 0.69663182 10.48752248 -0.75 15.9375 C-0.92974365 16.63117676 -1.1094873 17.32485352 -1.29467773 18.03955078 C-4.94184116 31.62789411 -4.94184116 31.62789411 -10 35 C-9.70996094 34.45859375 -9.41992188 33.9171875 -9.12109375 33.359375 C-5.22244169 25.15454628 -3.47674601 16.10432865 -1.95141602 7.20605469 C-1.08658362 2.17316724 -1.08658362 2.17316724 0 0 Z " fill="#65D94D" transform="translate(306,166)"/>
<path d="M0 0 C2.64 0 5.28 0 8 0 C8 0.99 8 1.98 8 3 C6.34467377 4.01866229 4.67739862 5.01810813 3 6 C2.67 6.99 2.34 7.98 2 9 C3.65 9 5.3 9 7 9 C3.5647952 11.29013653 2.014669 11.17842973 -2 11 C-1.34 7.37 -0.68 3.74 0 0 Z " fill="#339B39" transform="translate(327,165)"/>
<path d="M0 0 C0.33 0 0.66 0 1 0 C1 4.62 1 9.24 1 14 C6.28 14 11.56 14 17 14 C16.67 14.66 16.34 15.32 16 16 C10.83608171 17.7213061 5.40708764 17.05353552 0 17 C0 11.39 0 5.78 0 0 Z " fill="#858689" transform="translate(252,243)"/>
<path d="M0 0 C0.33 0.99 0.66 1.98 1 3 C0.0161236 4.34527507 -0.98642758 5.67695475 -2 7 C-2.82226701 9.55847449 -2.82226701 9.55847449 -3.31640625 12.3515625 C-3.52330078 13.36734375 -3.73019531 14.383125 -3.94335938 15.4296875 C-4.14767578 16.48414063 -4.35199219 17.53859375 -4.5625 18.625 C-4.97363983 20.72270415 -5.39129269 22.81914553 -5.81640625 24.9140625 C-5.99631104 25.8417041 -6.17621582 26.7693457 -6.36157227 27.72509766 C-7 30 -7 30 -9 32 C-8.59283054 25.58708101 -7.58342271 19.44830751 -6.1875 13.1875 C-6.03442383 12.45861572 -5.88134766 11.72973145 -5.72363281 10.97875977 C-4.66530598 6.42219123 -3.27672602 3.49654831 0 0 Z " fill="#75EF51" transform="translate(318,124)"/>
<path d="M0 0 C0.66 0 1.32 0 2 0 C2 0.66 2 1.32 2 2 C2.598125 2.2475 3.19625 2.495 3.8125 2.75 C6.28647521 4.16370012 7.43370255 5.65055383 9 8 C7.33333333 8 5.66666667 8 4 8 C3.67 8.99 3.34 9.98 3 11 C1.02 8.36 -0.96 5.72 -3 3 C-2.01 2.01 -1.02 1.02 0 0 Z " fill="#8C8D8B" transform="translate(401,168)"/>
<path d="M0 0 C0.66 0 1.32 0 2 0 C1.8125 2.75 1.8125 2.75 1 6 C0.21625 6.61875 -0.5675 7.2375 -1.375 7.875 C-5.01655215 10.82292317 -5.59894175 13.57560552 -7 18 C-7.33 18 -7.66 18 -8 18 C-8.78045417 11.8864423 -7.04122881 8.87670033 -3.5078125 3.91796875 C-2 2 -2 2 0 0 Z " fill="#1E972C" transform="translate(324,119)"/>
<path d="M0 0 C0.66 0 1.32 0 2 0 C3.34564304 4.59686113 2.60590157 8.59549214 1.6875 13.1875 C1.55666016 13.91130859 1.42582031 14.63511719 1.29101562 15.38085938 C0.25884757 20.74115243 0.25884757 20.74115243 -2 23 C-2.31732638 15.22550376 -1.11855299 7.67007765 0 0 Z " fill="#61B047" transform="translate(319,172)"/>
<path d="M0 0 C0.66 0.33 1.32 0.66 2 1 C-0.68275659 7.07150176 -4.44236365 11.35878998 -10 15 C-10.66 15 -11.32 15 -12 15 C-12 14.01 -12 13.02 -12 12 C-11.01 12 -10.02 12 -9 12 C-9.33 11.01 -9.66 10.02 -10 9 C-8.02 8.67 -6.04 8.34 -4 8 C-3.896875 7.236875 -3.79375 6.47375 -3.6875 5.6875 C-2.95635961 2.82940576 -2.23048087 1.84257115 0 0 Z " fill="#7BBF60" transform="translate(315,195)"/>
<path d="M0 0 C1.22602512 3.67807537 0.70295577 5.88243927 0.0625 9.6875 C-0.13214844 10.86699219 -0.32679688 12.04648438 -0.52734375 13.26171875 C-0.68332031 14.16535156 -0.83929688 15.06898438 -1 16 C-1.66 16 -2.32 16 -3 16 C-3.33 16.99 -3.66 17.98 -4 19 C-5 17 -5 17 -4.4375 14.8125 C-3.86496313 11.13190584 -4.83534748 8.49395756 -6 5 C-5.38125 4.9175 -4.7625 4.835 -4.125 4.75 C-1.81562433 4.18741541 -1.81562433 4.18741541 -0.75 1.9375 C-0.5025 1.298125 -0.255 0.65875 0 0 Z " fill="#50BA2A" transform="translate(318,179)"/>
<path d="M0 0 C1.9766813 3.35387729 2.42766743 6.26648949 2.75 10.125 C2.84796875 11.17945313 2.9459375 12.23390625 3.046875 13.3203125 C3 16 3 16 1 18 C0.28591666 19.98356483 -0.38617742 21.98315437 -1 24 C-2.32138707 20.03583878 -1.14441646 17.97179829 0 14 C0.16847091 10.70780572 0.16847091 10.70780572 0 8 C-0.66 9.32 -1.32 10.64 -2 12 C-2.17835515 7.45194365 -1.99785435 4.1205746 0 0 Z " fill="#4CC728" transform="translate(306,160)"/>
<path d="M0 0 C0.33 0 0.66 0 1 0 C1.47522635 7.80163257 1.35733788 14.28734435 -3 21 C-5.25 23.0625 -5.25 23.0625 -7 24 C-8 21 -8 21 -7.25 18.875 C-6 17 -6 17 -3 16 C-1.14480403 12.44736281 -0.66162749 9.15251366 -0.375 5.1875 C-0.26285156 3.72376953 -0.26285156 3.72376953 -0.1484375 2.23046875 C-0.09945313 1.49441406 -0.05046875 0.75835937 0 0 Z " fill="#557064" transform="translate(366,111)"/>
<path d="M0 0 C-0.33 1.65 -0.66 3.3 -1 5 C-5.62 5 -10.24 5 -15 5 C-13.68 4.34 -12.36 3.68 -11 3 C-10.401875 2.46375 -9.80375 1.9275 -9.1875 1.375 C-6.10620817 -0.56181201 -3.55917409 -0.20533697 0 0 Z " fill="#4D5256" transform="translate(283,186)"/>
<path d="M0 0 C1.79244141 0.01740234 1.79244141 0.01740234 3.62109375 0.03515625 C5.41740234 0.04869141 5.41740234 0.04869141 7.25 0.0625 C8.17683594 0.07410156 9.10367187 0.08570313 10.05859375 0.09765625 C10.05859375 0.42765625 10.05859375 0.75765625 10.05859375 1.09765625 C7.41859375 1.42765625 4.77859375 1.75765625 2.05859375 2.09765625 C1.39859375 4.73765625 0.73859375 7.37765625 0.05859375 10.09765625 C1.04859375 10.42765625 2.03859375 10.75765625 3.05859375 11.09765625 C2.06859375 11.42765625 1.07859375 11.75765625 0.05859375 12.09765625 C-0.60140625 11.76765625 -1.26140625 11.43765625 -1.94140625 11.09765625 C-1.06640625 5.34765625 -1.06640625 5.34765625 0.05859375 3.09765625 C-0.60140625 3.09765625 -1.26140625 3.09765625 -1.94140625 3.09765625 C-2.27140625 4.08765625 -2.60140625 5.07765625 -2.94140625 6.09765625 C-3.27140625 6.09765625 -3.60140625 6.09765625 -3.94140625 6.09765625 C-3.98412725 4.4315372 -3.98204457 2.7638274 -3.94140625 1.09765625 C-2.94140625 0.09765625 -2.94140625 0.09765625 0 0 Z " fill="#3F4848" transform="translate(333.94140625,137.90234375)"/>
<path d="M0 0 C1.31611677 0.95336021 2.62778961 1.91285774 3.9375 2.875 C4.66839844 3.40867187 5.39929688 3.94234375 6.15234375 4.4921875 C8 6 8 6 9 8 C7.68 7.67 6.36 7.34 5 7 C5 6.34 5 5.68 5 5 C4.01 5 3.02 5 2 5 C2.66 8.63 3.32 12.26 4 16 C0.62972148 12.62972148 0.43121312 11.43473296 -0.25 6.875 C-0.42015625 5.79992187 -0.5903125 4.72484375 -0.765625 3.6171875 C-0.84296875 2.75351563 -0.9203125 1.88984375 -1 1 C-0.67 0.67 -0.34 0.34 0 0 Z " fill="#8CCE5F" transform="translate(289,87)"/>
<path d="M0 0 C0.66 0 1.32 0 2 0 C1.9278125 0.66386719 1.855625 1.32773438 1.78125 2.01171875 C1.6884375 2.89472656 1.595625 3.77773437 1.5 4.6875 C1.4071875 5.55761719 1.314375 6.42773438 1.21875 7.32421875 C1.00816874 9.90007877 0.96573141 12.41700469 1 15 C1 15.99 1 16.98 1 18 C0.01 17.34 -0.98 16.68 -2 16 C-2.33 16.99 -2.66 17.98 -3 19 C-2.88534579 16.77027727 -2.75785234 14.54121247 -2.625 12.3125 C-2.55539062 11.07113281 -2.48578125 9.82976562 -2.4140625 8.55078125 C-2.03577906 5.30682228 -1.38020024 2.93432815 0 0 Z " fill="#13893E" transform="translate(287,186)"/>
<path d="M0 0 C0 -0.66 0 -1.32 0 -2 C0.66 -2 1.32 -2 2 -2 C2.33 -0.68 2.66 0.64 3 2 C-9.87 1.505 -9.87 1.505 -23 1 C-23 0.67 -23 0.34 -23 0 C-20.48083404 -0.39314715 -17.96140658 -0.76475959 -15.4375 -1.125 C-14.73302734 -1.23714844 -14.02855469 -1.34929687 -13.30273438 -1.46484375 C-8.28207131 -2.15894464 -4.78151834 -1.69646511 0 0 Z " fill="#228432" transform="translate(351,109)"/>
<path d="M0 0 C1.30751175 3.92253524 0.68911482 7.29616905 0.1875 11.3125 C0.10435547 12.05951172 0.02121094 12.80652344 -0.06445312 13.57617188 C-0.58947614 17.94114428 -1.43994377 21.85959759 -3 26 C-3.33 26 -3.66 26 -4 26 C-4.08214133 21.81079233 -3.81876036 18.09380181 -3 14 C-3.33 13.34 -3.66 12.68 -4 12 C-3.34 11.67 -2.68 11.34 -2 11 C-1.57038779 8.94068468 -1.57038779 8.94068468 -1.4375 6.5625 C-1.09333333 2.18666667 -1.09333333 2.18666667 0 0 Z " fill="#32983E" transform="translate(328,132)"/>
<path d="M0 0 C2.31 0 4.62 0 7 0 C3.21288911 4.6781958 -2.21893137 6.04810099 -7.9375 6.6875 C-9.290771 6.80272007 -10.64475992 6.9108799 -12 7 C-11.67 6.34 -11.34 5.68 -11 5 C-8.68925595 4.25881795 -6.35188447 3.59793673 -4 3 C-3.195625 2.79375 -2.39125 2.5875 -1.5625 2.375 C-1.046875 2.25125 -0.53125 2.1275 0 2 C0 1.34 0 0.68 0 0 Z " fill="#676D6F" transform="translate(364,153)"/>
<path d="M0 0 C0 7.15667771 -3.4329326 14.39896953 -6 21 C-7.90086201 15.60775879 -5.76332505 10.21176317 -4 5 C-1.8125 1.75 -1.8125 1.75 0 0 Z " fill="#A3E46E" transform="translate(303,122)"/>
<path d="M0 0 C-1.6875 3 -1.6875 3 -4 6 C-6.75 6.375 -6.75 6.375 -9 6 C-9 4.35 -9 2.7 -9 1 C-6.04335481 -0.4783226 -3.25770263 -0.06032783 0 0 Z " fill="#76827F" transform="translate(284,165)"/>
<path d="M0 0 C0.33 0.99 0.66 1.98 1 3 C-9.23 3 -19.46 3 -30 3 C-30 2.67 -30 2.34 -30 2 C-29.25838623 1.97494385 -28.51677246 1.9498877 -27.75268555 1.92407227 C-24.39744672 1.80813868 -21.04249056 1.68540015 -17.6875 1.5625 C-15.93663086 1.50352539 -15.93663086 1.50352539 -14.15039062 1.44335938 C-13.03212891 1.40146484 -11.91386719 1.35957031 -10.76171875 1.31640625 C-9.73006592 1.27974854 -8.69841309 1.24309082 -7.63549805 1.20532227 C-4.94209422 0.99548877 -2.6804626 0 0 0 Z " fill="#6EE416" transform="translate(394,172)"/>
<path d="M0 0 C5.29880286 1.61907865 7.47198978 4.5260787 10.3125 9.125 C11 11 11 11 10 14 C7 9.25 7 9.25 7 7 C4.06279492 5.47700477 1.0831351 4.19899698 -2 3 C-1.34 2.67 -0.68 2.34 0 2 C0 1.34 0 0.68 0 0 Z " fill="#62AD5D" transform="translate(354,98)"/>
<path d="M0 0 C0.61875 0.639375 1.2375 1.27875 1.875 1.9375 C3.82597612 4.03883584 3.82597612 4.03883584 6 5 C6 6.32 6 7.64 6 9 C6.66 9.33 7.32 9.66 8 10 C8 10.99 8 11.98 8 13 C4.59402245 11.86467415 4.46547428 11.51883178 2.9375 8.5 C1.57554472 5.66980932 1.57554472 5.66980932 -1 4 C-0.67 2.68 -0.34 1.36 0 0 Z " fill="#747C7F" transform="translate(364,100)"/>
<path d="M0 0 C3.63 0 7.26 0 11 0 C11.33 0.99 11.66 1.98 12 3 C7.99608513 4.60156595 4.92968808 3.4087561 1 2 C0.67 1.34 0.34 0.68 0 0 Z " fill="#5E6367" transform="translate(292,87)"/>
<path d="M0 0 C0.33 0 0.66 0 1 0 C2.38766322 6.05525768 1.49118146 9.32010626 -1 15 C-1.33 15 -1.66 15 -2 15 C-2.3690205 4.44191344 -2.3690205 4.44191344 0 0 Z " fill="#63DF1D" transform="translate(299,135)"/>
<path d="M0 0 C-0.639375 0.28875 -1.27875 0.5775 -1.9375 0.875 C-4.15206079 1.82823451 -4.15206079 1.82823451 -5 4 C-7.06640625 4.8515625 -7.06640625 4.8515625 -9.5625 5.625 C-10.38878906 5.88539062 -11.21507812 6.14578125 -12.06640625 6.4140625 C-12.70449219 6.60742188 -13.34257812 6.80078125 -14 7 C-14 6.34 -14 5.68 -14 5 C-12.57421875 3.74609375 -12.57421875 3.74609375 -10.6875 2.4375 C-10.07261719 2.00308594 -9.45773437 1.56867188 -8.82421875 1.12109375 C-5.52900795 -0.90401439 -3.6015351 -1.11771779 0 0 Z " fill="#A6E26E" transform="translate(318,115)"/>
<path d="M0 0 C7.14970521 -0.36981234 10.98168168 0.98778779 17 5 C16.67 5.66 16.34 6.32 16 7 C14.0625 6.625 14.0625 6.625 12 6 C11.67 5.34 11.34 4.68 11 4 C7.41353557 2.25800299 3.93306853 1.54880026 0 1 C0 0.67 0 0.34 0 0 Z " fill="#1F9331" transform="translate(344,100)"/>
<path d="M0 0 C-0.99 0.33 -1.98 0.66 -3 1 C0.63 1.33 4.26 1.66 8 2 C8 2.33 8 2.66 8 3 C2.39 3 -3.22 3 -9 3 C-6.27596221 -1.08605669 -4.4643819 -1.38549783 0 0 Z " fill="#65DC25" transform="translate(356,172)"/>
<path d="M0 0 C0.66 0.33 1.32 0.66 2 1 C-3.03933027 4.97841864 -7.70214541 6.05407718 -14 7 C-12.6032879 4.2065758 -11.00586915 4.03557041 -8.125 2.9375 C-7.24070312 2.59589844 -6.35640625 2.25429687 -5.4453125 1.90234375 C-3.64152209 1.2367278 -1.8240159 0.6080053 0 0 Z " fill="#44C11B" transform="translate(361,166)"/>
<path d="M0 0 C0.99 0.33 1.98 0.66 3 1 C1.515 7.435 1.515 7.435 0 14 C-0.33 14 -0.66 14 -1 14 C-1.02685938 11.85423363 -1.04633088 9.70837355 -1.0625 7.5625 C-1.07410156 6.36753906 -1.08570313 5.17257813 -1.09765625 3.94140625 C-1 1 -1 1 0 0 Z " fill="#70B361" transform="translate(323,160)"/>
<path d="M0 0 C0.66 0.33 1.32 0.66 2 1 C1.60304363 2.62992692 1.18167507 4.25392235 0.75 5.875 C0.51796875 6.77992188 0.2859375 7.68484375 0.046875 8.6171875 C-1 11 -1 11 -3.109375 12.3203125 C-4.04523438 12.65675781 -4.04523438 12.65675781 -5 13 C-5 12.34 -5 11.68 -5 11 C-4.34 10.67 -3.68 10.34 -3 10 C-2.60914534 7.90491777 -2.60914534 7.90491777 -2.5 5.5 C-2.34375 3.03125 -2.34375 3.03125 -2 1 C-1.34 0.67 -0.68 0.34 0 0 Z " fill="#2BA42F" transform="translate(300,186)"/>
<path d="M0 0 C2.64 0 5.28 0 8 0 C8 0.33 8 0.66 8 1 C6.02 1.33 4.04 1.66 2 2 C1.67 4.97 1.34 7.94 1 11 C0.01 11 -0.98 11 -2 11 C-1.34 7.37 -0.68 3.74 0 0 Z " fill="#4C9453" transform="translate(327,165)"/>
<path d="M0 0 C2.31 0 4.62 0 7 0 C6.6875 1.9375 6.6875 1.9375 6 4 C3 5 3 5 0.8125 4.0625 C0.214375 3.711875 -0.38375 3.36125 -1 3 C-0.67 2.01 -0.34 1.02 0 0 Z " fill="#67EE09" transform="translate(315,117)"/>
<path d="M0 0 C2.5371542 1.2685771 3.49693317 2.60875731 5 5 C5 6.32 5 7.64 5 9 C3.35 8.67 1.7 8.34 0 8 C0 5.36 0 2.72 0 0 Z " fill="#A6D77D" transform="translate(394,168)"/>
<path d="M0 0 C1.5 1.3125 1.5 1.3125 3 3 C3 3.99 3 4.98 3 6 C1.68 6.33 0.36 6.66 -1 7 C-3 4 -3 4 -3 1 C-2.01 0.67 -1.02 0.34 0 0 Z " fill="#474E51" transform="translate(373,145)"/>
<path d="M0 0 C0.33 0.66 0.66 1.32 1 2 C0.34 1.67 -0.32 1.34 -1 1 C-0.67 0.67 -0.34 0.34 0 0 Z M-5 2 C-3.68 2 -2.36 2 -1 2 C-1 2.66 -1 3.32 -1 4 C0.32 4.33 1.64 4.66 3 5 C0.525 6.485 0.525 6.485 -2 8 C-2.99 6.02 -3.98 4.04 -5 2 Z " fill="#505053" transform="translate(276,259)"/>
<path d="M0 0 C1.32 0.66 2.64 1.32 4 2 C2.625 4 2.625 4 1 6 C0.34 6 -0.32 6 -1 6 C-1.33 7.32 -1.66 8.64 -2 10 C-1.85950482 8.52031676 -1.71245174 7.04125484 -1.5625 5.5625 C-1.48128906 4.73878906 -1.40007812 3.91507813 -1.31640625 3.06640625 C-1 1 -1 1 0 0 Z " fill="#838787" transform="translate(324,180)"/>
<path d="M0 0 C1.32 0 2.64 0 4 0 C4 0.66 4 1.32 4 2 C5.32 2 6.64 2 8 2 C8 2.66 8 3.32 8 4 C8.66 4 9.32 4 10 4 C10 4.66 10 5.32 10 6 C5.16743695 5.58578031 3.17320782 3.53586014 0 0 Z " fill="#8FCE5D" transform="translate(293,103)"/>
<path d="M0 0 C0.68707555 2.49064888 1 4.37886292 1 7 C-0.98 7 -2.96 7 -5 7 C-3.47793991 4.37098712 -2.15634036 2.15634036 0 0 Z " fill="#7F8386" transform="translate(263,179)"/>
<path d="M0 0 C2.475 0.99 2.475 0.99 5 2 C5 2.66 5 3.32 5 4 C4.01 4 3.02 4 2 4 C2 4.66 2 5.32 2 6 C-0.475 5.01 -0.475 5.01 -3 4 C-2.01 2.68 -1.02 1.36 0 0 Z " fill="#717679" transform="translate(267,175)"/>
<path d="M0 0 C0.66 0 1.32 0 2 0 C2.125 2.375 2.125 2.375 2 5 C1.34 5.66 0.68 6.32 0 7 C-0.71408334 8.98356483 -1.38617742 10.98315437 -2 13 C-3.18414294 9.44757118 -2.69535532 8.30169438 -1.5625 4.8125 C-1.27503906 3.91144531 -0.98757813 3.01039063 -0.69140625 2.08203125 C-0.46324219 1.39496094 -0.23507812 0.70789063 0 0 Z " fill="#42B926" transform="translate(307,171)"/>
<path d="M0 0 C0.99 0 1.98 0 3 0 C3 1.98 3 3.96 3 6 C2.34 6 1.68 6 1 6 C0.67 7.32 0.34 8.64 0 10 C-1.6415049 6.7169902 -0.51888624 3.57454967 0 0 Z " fill="#7AC168" transform="translate(290,164)"/>
<path d="M0 0 C0.66 0 1.32 0 2 0 C1.75 2.875 1.75 2.875 1 6 C-1.0625 7.375 -1.0625 7.375 -3 8 C-2.25 2.25 -2.25 2.25 0 0 Z " fill="#139230" transform="translate(324,119)"/>
<path d="M0 0 C0.94875 0.04125 1.8975 0.0825 2.875 0.125 C1.25160195 1.83384005 -0.41819053 3.49946717 -2.125 5.125 C-2.785 5.125 -3.445 5.125 -4.125 5.125 C-4.455 4.135 -4.785 3.145 -5.125 2.125 C-3.125 0.125 -3.125 0.125 0 0 Z " fill="#656768" transform="translate(228.125,260.875)"/>
<path d="M0 0 C1.32 0 2.64 0 4 0 C3.67 1.32 3.34 2.64 3 4 C0.03 4 -2.94 4 -6 4 C-4.68 3.34 -3.36 2.68 -2 2 C-1.34 1.34 -0.68 0.68 0 0 Z " fill="#484B50" transform="translate(274,187)"/>
<path d="M0 0 C0.99 0 1.98 0 3 0 C2.67 3.3 2.34 6.6 2 10 C0.0044484 6.00889681 -0.19546065 4.30013434 0 0 Z " fill="#4E9265" transform="translate(332,114)"/>
<path d="M0 0 C0.33 0.66 0.66 1.32 1 2 C3.02463255 2.65213292 3.02463255 2.65213292 5 3 C4.67 4.65 4.34 6.3 4 8 C2 6.25 2 6.25 0 4 C0 2.68 0 1.36 0 0 Z " fill="#606465" transform="translate(267,274)"/>
<path d="M0 0 C0.33 0.66 0.66 1.32 1 2 C-3.75 6.875 -3.75 6.875 -6 8 C-5.65120368 4.74456771 -4.97866739 3.98126893 -2.4375 1.75 C-1.633125 1.1725 -0.82875 0.595 0 0 Z " fill="#45BF3D" transform="translate(298,199)"/>
<path d="M0 0 C0.66 0 1.32 0 2 0 C1.67 3.3 1.34 6.6 1 10 C0.01 9.67 -0.98 9.34 -2 9 C-1.51421457 5.87709365 -1.0013988 3.00419641 0 0 Z " fill="#258D3F" transform="translate(287,186)"/>
<path d="M0 0 C0.66 0 1.32 0 2 0 C2.33 1.65 2.66 3.3 3 5 C1.02 5 -0.96 5 -3 5 C-2.67 4.01 -2.34 3.02 -2 2 C-1.34 2 -0.68 2 0 2 C0 1.34 0 0.68 0 0 Z " fill="#3A824F" transform="translate(281,171)"/>
<path d="M0 0 C3.01327566 1.50663783 3.61056618 4.03166411 5 7 C4.02149805 8.02104551 3.02019573 9.0206121 2 10 C1.67 10 1.34 10 1 10 C1 7.36 1 4.72 1 2 C0.34 1.67 -0.32 1.34 -1 1 C-0.67 0.67 -0.34 0.34 0 0 Z " fill="#177E3C" transform="translate(359,114)"/>
<path d="M0 0 C2.375 0.25 2.375 0.25 5 1 C7.17831524 3.90442032 7.19715281 6.45124947 7 10 C6.773125 9.46375 6.54625 8.9275 6.3125 8.375 C4.56617944 5.21499137 2.3597151 2.7323017 0 0 Z " fill="#5DA77A" transform="translate(352,111)"/>
<path d="M0 0 C3.17119503 1.09351553 4.00783543 2.0126988 5.8125 4.9375 C7 8 7 8 6 11 C5.18357746 9.73168307 4.37200895 8.46024069 3.5625 7.1875 C3.11003906 6.47980469 2.65757812 5.77210937 2.19140625 5.04296875 C1 3 1 3 0 0 Z " fill="#547855" transform="translate(359,100)"/>
<path d="M0 0 C0.66 0.33 1.32 0.66 2 1 C1.67 3.64 1.34 6.28 1 9 C-0.32 7.68 -1.64 6.36 -3 5 C-2.34 4.67 -1.68 4.34 -1 4 C-0.34786708 1.97536745 -0.34786708 1.97536745 0 0 Z " fill="#68696D" transform="translate(336,259)"/>
<path d="M0 0 C0.66 0 1.32 0 2 0 C0.4169423 4.2742558 -2.50568404 6.26531794 -6 9 C-5.34 7.35 -4.68 5.7 -4 4 C-3.34 4 -2.68 4 -2 4 C-2 3.34 -2 2.68 -2 2 C-1.34 2 -0.68 2 0 2 C0 1.34 0 0.68 0 0 Z " fill="#16912F" transform="translate(294,199)"/>
<path d="M0 0 C0.33 0.66 0.66 1.32 1 2 C0.67 2.66 0.34 3.32 0 4 C-0.66 4 -1.32 4 -2 4 C-2.33 5.32 -2.66 6.64 -3 8 C-3.66 8 -4.32 8 -5 8 C-4.45773019 4.20411134 -2.79872437 2.52788007 0 0 Z " fill="#7DE029" transform="translate(307,120)"/>
<path d="M0 0 C1 3 1 3 0.00390625 5.04296875 C-0.47175781 5.75066406 -0.94742187 6.45835937 -1.4375 7.1875 C-1.91058594 7.90292969 -2.38367188 8.61835938 -2.87109375 9.35546875 C-3.24363281 9.89816406 -3.61617188 10.44085938 -4 11 C-4.33 10.34 -4.66 9.68 -5 9 C-2.6 2.6 -2.6 2.6 0 0 Z " fill="#70EC44" transform="translate(318,124)"/>
<path d="M0 0 C3.63 0.33 7.26 0.66 11 1 C7.39338934 2.80330533 4.91606575 3.46599103 1 4 C0.67 2.68 0.34 1.36 0 0 Z " fill="#58CE25" transform="translate(301,97)"/>
<path d="M0 0 C2 1 2 1 4 4 C3.34 5.32 2.68 6.64 2 8 C0.4375 6.25 0.4375 6.25 -1 4 C-0.6875 1.75 -0.6875 1.75 0 0 Z " fill="#969697" transform="translate(402,171)"/>
<path d="M0 0 C1.0326802 2.78823655 1.04509293 3.8677274 0.0625 6.75 C-0.288125 7.4925 -0.63875 8.235 -1 9 C-1.33 9 -1.66 9 -2 9 C-2 6.36 -2 3.72 -2 1 C-1.34 0.67 -0.68 0.34 0 0 Z " fill="#9ACB7F" transform="translate(319,186)"/>
<path d="M0 0 C1.32 1.32 2.64 2.64 4 4 C3.01 4 2.02 4 1 4 C1 5.65 1 7.3 1 9 C0.67 9 0.34 9 0 9 C-0.87890625 2.84765625 -0.87890625 2.84765625 -1 1 C-0.67 0.67 -0.34 0.34 0 0 Z " fill="#8ABE5F" transform="translate(289,87)"/>
<path d="M0 0 C2.31 0 4.62 0 7 0 C6.67 0.99 6.34 1.98 6 3 C4.35 3 2.7 3 1 3 C0.67 2.01 0.34 1.02 0 0 Z " fill="#676C71" transform="translate(396,181)"/>
<path d="M0 0 C0.66 0.33 1.32 0.66 2 1 C-0.36292656 3.52588702 -1.66462511 4.88820837 -5 6 C-4.75 4.125 -4.75 4.125 -4 2 C-2.0625 0.6875 -2.0625 0.6875 0 0 Z " fill="#68EA2F" transform="translate(321,120)"/>
</svg>
